<?xml version="1.0" encoding="UTF-8"?>
<svg version="1.1" xmlns="http://www.w3.org/2000/svg" width="512" height="512">
<path d="M0 0 C3.26625705 2.06640752 4.63837858 3.4858729 5.54296875 7.2734375 C5.8258609 10.74286955 5.78606584 13.75512504 3.88865662 16.76000977 C3.37424515 17.31487061 2.85983368 17.86973145 2.32983398 18.44140625 C1.37341507 19.47479126 1.37341507 19.47479126 0.39767456 20.52905273 C-5.0234037 26.11579863 -10.51168783 31.63171896 -16.02734375 37.125 C-17.38519348 38.48098158 -18.74282033 39.8371864 -20.10023499 41.19360352 C-23.65058599 44.7401606 -27.20393117 48.28370261 -30.75793457 51.82659912 C-34.39319078 55.4515736 -38.02557099 59.07942749 -41.65820312 62.70703125 C-48.76934302 69.80748901 -55.8836533 76.90476097 -63 84 C-61.20568401 84.00081715 -61.20568401 84.00081715 -59.37511921 84.00165081 C-30.98563124 84.01569203 -2.59625889 84.05543078 25.79314233 84.12685562 C29.28665498 84.13562247 32.78016813 84.14417226 36.27368164 84.15258789 C36.96918333 84.15426695 37.66468502 84.15594602 38.38126252 84.15767596 C49.64581455 84.1843528 60.9103157 84.19344153 72.17489608 84.19604143 C83.7316352 84.19909985 95.28820275 84.22140614 106.84487897 84.26052457 C113.33689034 84.28188784 119.82865283 84.29443795 126.32069969 84.28615379 C132.42830749 84.27863494 138.53541011 84.29434886 144.64292526 84.32806015 C146.88710224 84.33631949 149.13132921 84.3360129 151.37550163 84.32659721 C154.4353167 84.31502807 157.49346156 84.33401387 160.55314636 84.36076355 C161.89118648 84.34475366 161.89118648 84.34475366 163.25625771 84.32842034 C167.69766288 84.40106813 169.44247908 84.55534403 173.02792835 87.41495228 C175.81563213 91.06915384 176.34426091 93.31246258 176.28515625 97.96484375 C175.83321304 101.19035622 174.31988026 102.80900197 172 105 C169.20203863 106.65686852 167.15515172 107.25112696 163.91581345 107.26171303 C163.10666827 107.26917852 162.29752309 107.27664401 161.46385837 107.28433573 C160.13895825 107.28143363 160.13895825 107.28143363 158.78729248 107.2784729 C157.84465774 107.2842653 156.902023 107.2900577 155.93082356 107.29602563 C152.76472035 107.31306307 149.59876258 107.31590538 146.43261719 107.31884766 C144.16604249 107.32814324 141.89947123 107.33831135 139.63290405 107.34928894 C133.47218767 107.37664464 127.31149422 107.39175487 121.15073299 107.40471697 C114.71514688 107.42032314 108.27960778 107.44712135 101.84405518 107.4727478 C91.03992969 107.51425572 80.23580541 107.54883745 69.43164062 107.578125 C58.30336664 107.60831008 47.17511837 107.64266015 36.046875 107.68261719 C35.36091691 107.68507874 34.67495882 107.68754028 33.96821412 107.69007643 C30.52696002 107.70245102 27.08570623 107.71490755 23.64445257 107.72740483 C-4.90366197 107.83097433 -33.45181014 107.92002963 -62 108 C-61.17536758 108.8224118 -60.35073517 109.64482361 -59.50111389 110.49215698 C-51.74340996 118.22962018 -43.98832433 125.96969901 -36.23581791 133.71236992 C-32.24976102 137.69320037 -28.26277599 141.67309204 -24.27368164 145.65087891 C-20.42657144 149.48715181 -16.58188407 153.32583729 -12.73888969 157.16623306 C-11.26969507 158.63357497 -9.79961825 160.10003409 -8.32866096 161.56560898 C-6.27416255 163.61288584 -4.22277689 165.66323265 -2.17211914 167.71435547 C-1.55856567 168.32431366 -0.94501221 168.93427185 -0.31286621 169.56271362 C3.57067209 173.45584142 5.16167069 175.33978274 5.375 180.8125 C5.35164663 184.85263248 5.21063888 185.7283867 2.625 189.0625 C-0.92158831 191.68021994 -3.31400251 192.53263622 -7.8052206 192.46921062 C-10.5334926 191.88594736 -11.70016298 190.87895272 -13.74147034 188.99263 C-14.43660295 188.35389261 -15.13173557 187.71515522 -15.84793282 187.05706215 C-19.44528398 183.61851944 -22.99737378 180.14155892 -26.51147461 176.61791992 C-27.32058289 175.81056396 -28.12969116 175.00320801 -28.96331787 174.17138672 C-31.61216507 171.52690809 -34.25737668 168.87882779 -36.90234375 166.23046875 C-38.74924861 164.38423797 -40.59630186 162.53815561 -42.4434967 160.69221497 C-46.30079871 156.83672437 -50.15600458 152.97914727 -54.01000977 149.12036133 C-58.46621663 144.65869061 -62.92604569 140.20066489 -67.38772768 135.74446982 C-71.68926408 131.44801143 -75.98799246 127.14875515 -80.28552437 122.8482914 C-82.1121123 121.0210351 -83.9394469 119.19452489 -85.76753044 117.36876488 C-88.3122043 114.82661807 -90.85367195 112.28130959 -93.39428711 109.73510742 C-94.15423477 108.97718399 -94.91418243 108.21926056 -95.69715881 107.43836975 C-96.38534698 106.74736176 -97.07353516 106.05635376 -97.78257751 105.34440613 C-98.38333571 104.7432709 -98.98409391 104.14213568 -99.60305691 103.52278423 C-102.2451525 100.64268015 -102.20761378 98.08731728 -102.42578125 94.265625 C-101.14127364 87.43063036 -94.50465446 82.22129679 -89.80664062 77.54785156 C-88.98342819 76.72113449 -88.16021576 75.89441742 -87.3120575 75.04264832 C-84.59845384 72.32026517 -81.87762731 69.60523574 -79.15625 66.890625 C-77.26553498 64.9985625 -75.37511729 63.1062066 -73.48498535 61.21356201 C-69.5275958 57.25254121 -65.56602427 53.29573978 -61.60205078 49.34130859 C-57.02213813 44.77229392 -52.44949506 40.19609872 -47.88053179 35.61613679 C-43.95119427 31.67772037 -40.01796906 27.74321842 -36.08147383 23.81195617 C-33.73300869 21.46660547 -31.38630586 19.11954344 -29.04231262 16.76972198 C-26.43079846 14.15313948 -23.81297749 11.543036 -21.19335938 8.93457031 C-20.41921188 8.15637436 -19.64506439 7.37817841 -18.84745789 6.57640076 C-18.13253677 5.86711929 -17.41761566 5.15783783 -16.68103027 4.42706299 C-16.06309349 3.80988026 -15.44515671 3.19269753 -14.80849457 2.55681229 C-10.05585478 -1.53441814 -5.89347489 -1.57299152 0 0 Z " fill="#000000" transform="translate(251,171)"/>
<path d="M0 0 C3.6578218 2.03993908 5.66946174 3.50419262 8 7 C8.25415033 9.33418447 8.25415033 9.33418447 8.26006222 12.14691639 C8.2706606 13.75442948 8.2706606 13.75442948 8.2814731 15.39441758 C8.27905802 16.57610747 8.27664293 17.75779735 8.27415466 18.97529602 C8.28200968 20.8532667 8.28200968 20.8532667 8.29002339 22.76917619 C8.30423341 26.25111903 8.30586611 29.73297274 8.30542648 33.21494043 C8.30707205 36.96761262 8.3201337 40.72024781 8.33161926 44.47290039 C8.35448861 52.68154095 8.36239194 60.89015569 8.36744571 69.09882379 C8.37070047 74.22284535 8.3772216 79.34685938 8.3844471 84.47087669 C8.40401551 98.6535852 8.42041832 112.83628671 8.42332363 127.01900959 C8.42360499 128.38092247 8.42360499 128.38092247 8.42389202 129.77034874 C8.42425828 131.61102752 8.42462198 133.4517063 8.42498314 135.29238508 C8.42516595 136.20612017 8.42534876 137.11985526 8.42553711 138.0612793 C8.42571766 138.97612766 8.42589821 139.89097603 8.42608423 140.83354708 C8.42962654 155.66034657 8.45665137 170.48700088 8.494035 185.31375001 C8.53209573 200.53062874 8.55148094 215.7474354 8.55178314 230.9643628 C8.55236822 239.51037014 8.56089228 248.0562043 8.58978081 256.60216713 C8.61426488 263.87873259 8.62159784 271.15506174 8.60653328 278.43165723 C8.59935205 282.14490795 8.60027317 285.85769173 8.62294388 289.57089043 C8.64728078 293.59552313 8.63293241 297.61908829 8.61473083 301.64375305 C8.6279308 302.81875077 8.64113077 303.99374849 8.65473074 305.2043522 C8.56347053 314.00928937 8.56347053 314.00928937 5.58657932 317.70976543 C2.038409 320.85142138 -0.11036084 321.39423234 -4.89453125 321.359375 C-8.61593453 320.72418186 -10.40312849 318.66020984 -13 316 C-14.25515706 313.48968588 -14.12881077 311.78387566 -14.13422108 308.97333813 C-14.13867892 307.90303708 -14.14313676 306.83273604 -14.14772969 305.73000163 C-14.14754533 304.54471678 -14.14736097 303.35943194 -14.14717102 302.13822937 C-14.15084771 300.88639777 -14.1545244 299.63456618 -14.1583125 298.34480029 C-14.16834842 294.85868731 -14.17205184 291.37259154 -14.17470181 287.88646615 C-14.17860012 284.13108023 -14.18817874 280.375708 -14.19691467 276.62033081 C-14.21669187 267.54579707 -14.22674661 258.47126219 -14.23564246 249.39671227 C-14.24002307 245.12616145 -14.24539044 240.85561187 -14.25063133 236.58506203 C-14.26764441 222.39381384 -14.2821396 208.20256644 -14.28938007 194.01130962 C-14.29129005 190.32728258 -14.29321037 186.64325554 -14.29516602 182.95922852 C-14.29564976 182.04355234 -14.2961335 181.12787616 -14.2966319 180.18445221 C-14.30493599 165.34400715 -14.33027894 150.5036426 -14.36274669 135.66323271 C-14.39578941 120.43622652 -14.41382628 105.20926128 -14.41702431 89.98221904 C-14.41919194 81.42898462 -14.4279774 72.87586762 -14.45348549 64.32266808 C-14.47515442 57.0398578 -14.48326174 49.75719345 -14.47351871 42.47435459 C-14.46896295 38.75724306 -14.47093363 35.04043287 -14.49028015 31.32336235 C-14.51105965 27.29626828 -14.50096228 23.26984728 -14.48774719 19.24272156 C-14.49871644 18.06412888 -14.50968568 16.8855362 -14.52098733 15.67122859 C-14.4580373 7.76203358 -14.4580373 7.76203358 -12.0867033 3.81686115 C-8.13355007 0.37491014 -5.30788144 -0.63694577 0 0 Z " fill="#000000" transform="translate(99,106)"/>
</svg>
