<?xml version="1.0" standalone="no"?>
<!DOCTYPE svg PUBLIC "-//W3C//DTD SVG 20010904//EN"
 "http://www.w3.org/TR/2001/REC-SVG-20010904/DTD/svg10.dtd">
<svg version="1.0" xmlns="http://www.w3.org/2000/svg"
 width="512.000000pt" height="512.000000pt" viewBox="0 0 512.000000 512.000000"
 preserveAspectRatio="xMidYMid meet">

<g transform="translate(0.000000,512.000000) scale(0.100000,-0.100000)"
fill="#000000" stroke="none">
<path d="M1500 4488 c0 -412 -1 -417 -66 -482 -65 -65 -70 -66 -482 -66 l-372
0 2 -1407 c3 -1408 3 -1408 24 -1454 31 -66 78 -114 142 -146 l57 -28 1275 0
1275 0 57 28 c64 32 111 80 142 146 l21 46 0 1755 0 1755 -21 46 c-31 66 -78
114 -142 146 l-57 28 -927 3 -928 2 0 -372z m1580 -928 c11 -11 20 -29 20 -40
0 -11 -9 -29 -20 -40 -20 -20 -33 -20 -1000 -20 -967 0 -980 0 -1000 20 -11
11 -20 29 -20 40 0 11 9 29 20 40 20 20 33 20 1000 20 967 0 980 0 1000 -20z
m0 -480 c11 -11 20 -29 20 -40 0 -11 -9 -29 -20 -40 -20 -20 -33 -20 -1000
-20 -967 0 -980 0 -1000 20 -11 11 -20 29 -20 40 0 11 9 29 20 40 20 20 33 20
1000 20 967 0 980 0 1000 -20z m0 -480 c11 -11 20 -29 20 -40 0 -11 -9 -29
-20 -40 -20 -20 -33 -20 -1000 -20 -967 0 -980 0 -1000 20 -11 11 -20 29 -20
40 0 11 9 29 20 40 20 20 33 20 1000 20 967 0 980 0 1000 -20z m0 -480 c11
-11 20 -29 20 -40 0 -11 -9 -29 -20 -40 -20 -20 -33 -20 -1000 -20 -967 0
-980 0 -1000 20 -11 11 -20 29 -20 40 0 11 9 29 20 40 20 20 33 20 1000 20
967 0 980 0 1000 -20z m0 -480 c11 -11 20 -29 20 -40 0 -11 -9 -29 -20 -40
-20 -20 -33 -20 -1000 -20 -967 0 -980 0 -1000 20 -11 11 -20 29 -20 40 0 11
9 29 20 40 20 20 33 20 1000 20 967 0 980 0 1000 -20z"/>
<path d="M995 4440 l-380 -380 343 0 c375 0 388 2 411 57 8 20 11 127 9 366
l-3 337 -380 -380z"/>
<path d="M3698 2744 l-3 -1639 -23 -55 c-46 -113 -129 -196 -242 -242 l-55
-23 -1147 -3 c-632 -1 -1148 -6 -1148 -10 0 -22 64 -105 101 -132 88 -63 20
-61 1400 -58 l1254 3 57 28 c64 32 111 80 142 146 l21 46 0 1675 0 1675 -21
46 c-49 106 -142 168 -264 177 l-70 5 -2 -1639z"/>
<path d="M4178 2424 l-3 -1639 -23 -55 c-46 -113 -129 -196 -242 -242 l-55
-23 -1147 -3 c-632 -1 -1148 -6 -1148 -10 0 -22 64 -105 101 -132 88 -63 20
-61 1400 -58 l1254 3 57 28 c64 32 111 80 142 146 l21 46 0 1675 0 1675 -21
46 c-49 106 -142 168 -264 177 l-70 5 -2 -1639z"/>
</g>
</svg>
