<?xml version="1.0" encoding="UTF-8"?>
<svg version="1.1" xmlns="http://www.w3.org/2000/svg" width="512" height="512">
<path d="M0 0 C1.35916822 -0.00131129 2.71833568 -0.00394364 4.07749915 -0.0077675 C7.77880088 -0.01442101 11.47983823 -0.00255149 15.18110633 0.01256669 C19.18502218 0.0255977 23.18892473 0.02113262 27.19285583 0.01885986 C34.11880233 0.01729157 41.04466362 0.02665417 47.97058868 0.04357338 C57.98413388 0.06801927 67.99763814 0.07577435 78.01120993 0.07953735 C94.25999905 0.08609309 110.50874281 0.10603038 126.75750732 0.13444519 C142.53582534 0.16200852 158.31413101 0.18323096 174.09246826 0.19596863 C175.06606313 0.1967568 176.03965801 0.19754497 177.04275575 0.19835702 C181.92729936 0.20227231 186.81184306 0.20606339 191.69638681 0.20979273 C232.17854315 0.2408613 272.66064959 0.29367312 313.14276123 0.36076355 C311.62806599 3.53628872 310.06797747 5.67641483 307.55711365 8.16000366 C306.81273041 8.90135559 306.06834717 9.64270752 305.30140686 10.40652466 C304.07565193 11.61206749 304.07565193 11.61206749 302.82513428 12.84196472 C301.53464172 14.1232576 301.53464172 14.1232576 300.21807861 15.43043518 C298.34804529 17.28615509 296.47633096 19.13998661 294.60169029 20.99103355 C291.63237067 23.92368529 288.67182684 26.86508969 285.71278381 29.80810547 C277.29756235 38.17509275 268.87074594 46.53034311 260.43499756 54.87663269 C255.77449152 59.48786951 251.12133756 64.10640209 246.47579604 68.73271543 C243.54160952 71.65388854 240.59867999 74.56585203 237.64875257 77.47112405 C235.37390247 79.71678479 233.11230456 81.9757311 230.84857178 84.23258972 C229.63192589 85.42295082 229.63192589 85.42295082 228.39070129 86.63735962 C218.99924529 96.06135374 214.82512337 105.44521074 214.84197998 118.66545105 C214.83769485 119.42947235 214.83340973 120.19349365 214.82899475 120.98066711 C214.82329135 122.58570878 214.82272147 124.19077628 214.8270874 125.79582214 C214.83024447 128.22287566 214.80674919 130.64870413 214.78143311 133.0756073 C214.7292633 145.61962805 216.2411449 156.11792757 224.14276123 166.36076355 C232.97492252 175.05986026 242.8942087 178.47467217 255.08416748 178.5990448 C255.84769028 178.60711655 256.61121307 178.61518829 257.39787292 178.62350464 C259.01243861 178.63729731 260.62703286 178.64804088 262.24163818 178.65592957 C263.87160966 178.667398 265.50154513 178.68776766 267.13128662 178.717453 C282.70156793 179.00049153 293.97264007 176.90458179 305.68546581 165.99172115 C308.64416724 163.09080141 311.56902914 160.15940501 314.48406982 157.21476746 C315.60469525 156.0902974 316.72578155 154.96628647 317.84729004 153.84269714 C320.24768962 151.43600862 322.64495504 149.02625742 325.03980637 146.614048 C328.82441911 142.80227905 332.61674901 138.9982505 336.4102478 135.19532776 C344.45204194 127.13139773 352.48530694 119.05899536 360.51776123 110.98576355 C369.21101511 102.24846016 377.90573335 93.5126434 386.61019003 84.78649843 C390.38413878 81.00256586 394.15315414 77.21380632 397.91850734 73.42132115 C400.25360327 71.07136081 402.59278665 68.72550279 404.93312836 66.38076782 C406.0209278 65.28920905 407.10698943 64.19591543 408.19121933 63.100811 C409.6656783 61.6120248 411.14608955 60.12942851 412.62820435 58.64826965 C413.45664541 57.81538736 414.28508648 56.98250507 415.13863182 56.12438393 C417.14276123 54.36076355 417.14276123 54.36076355 419.14276123 54.36076355 C419.23417279 85.68212736 419.30488286 117.00345562 419.34702255 148.32492131 C419.35202488 152.02957728 419.35720222 155.73423298 419.36248779 159.43888855 C419.36353703 160.17636405 419.36458628 160.91383954 419.36566731 161.67366278 C419.38303376 173.58716982 419.41455051 185.50059901 419.45137241 197.41406 C419.48888688 209.65442672 419.51101919 221.8947529 419.51911521 234.13517475 C419.52458131 241.67746895 419.54179345 249.21954303 419.5744271 256.76176941 C419.59823412 262.56237363 419.60055475 268.36283938 419.59519196 274.16348267 C419.59628589 276.53046008 419.60415487 278.89744639 419.61958313 281.26437378 C419.76663525 305.00323243 416.29315762 324.38697606 399.34588623 342.2552948 C381.55893766 359.09208586 360.79377811 359.92343371 337.58595848 359.54096603 C333.29067168 359.4717728 328.99573432 359.445664 324.69996643 359.42744446 C312.49707568 359.37102359 300.29528218 359.28880959 288.09368896 359.09709167 C281.32625142 358.99111136 274.56035628 358.93653615 267.79206735 358.93717301 C264.22902652 358.93534582 260.67041648 358.90874529 257.10844994 358.81760788 C239.03774537 358.37148474 227.31853803 360.0222901 213.90564156 372.7176857 C211.52495213 374.93658735 208.98977343 376.81939107 206.36151123 378.73576355 C204.78764808 379.94286382 203.21470779 381.15116846 201.64276123 382.36076355 C194.25779327 388.01616652 186.81077868 393.57549325 179.30682373 399.07170105 C173.36603352 403.43354369 167.49569069 407.88189737 161.64276123 412.36076355 C154.66922537 417.68805794 147.68224889 422.99580304 140.64276123 428.23576355 C139.46810303 429.11941589 139.46810303 429.11941589 138.26971436 430.0209198 C132.17358489 434.53537979 127.99488824 436.99271995 120.29510498 435.9037323 C116.47348149 434.93965668 114.14260802 432.90190775 112.02804565 429.64256287 C110.83391082 426.56470905 110.90348773 423.964608 110.91571045 420.66447449 C110.9154184 420.00064758 110.91512634 419.33682068 110.91482544 418.65287781 C110.91621465 416.46683004 110.9317562 414.28112651 110.94744873 412.09513855 C110.95118032 410.57628058 110.95402661 409.0574202 110.95602417 407.53855896 C110.96364913 403.54693418 110.98328779 399.55545566 111.00543213 395.56388855 C111.02591509 391.48838784 111.03503112 387.41286343 111.04510498 383.33732605 C111.06653482 375.34507154 111.10065697 367.35293576 111.14276123 359.36076355 C110.51752532 359.36445072 109.89228941 359.36813789 109.24810696 359.3719368 C93.97116411 359.46062233 78.69430132 359.5266347 63.41716671 359.56801224 C56.02897277 359.58855861 48.64095162 359.61652562 41.25286865 359.66252136 C34.80663617 359.70263402 28.36052893 359.72825381 21.91417509 359.73711753 C18.50696096 359.74229143 15.10010485 359.75428173 11.69300652 359.78368378 C-11.89379566 359.96463869 -31.65506425 358.31530318 -49.23614502 341.00920105 C-50.10110596 340.13521667 -50.96606689 339.2612323 -51.85723877 338.36076355 C-52.46438721 337.77552917 -53.07153564 337.1902948 -53.69708252 336.58732605 C-63.99067177 325.82956964 -68.34081534 309.99681748 -68.2381897 295.50712585 C-68.24286967 294.47234966 -68.24754964 293.43757346 -68.25237143 292.37144041 C-68.26425253 288.9348049 -68.25489108 285.49857327 -68.24542236 282.06193542 C-68.24949111 279.58557911 -68.25483469 277.10922461 -68.26135254 274.63287354 C-68.27358133 268.62345853 -68.27183391 262.6141996 -68.26311462 256.60479081 C-68.25631928 251.7176478 -68.25542932 246.83053627 -68.25868607 241.94338989 C-68.25914576 241.24588984 -68.25960546 240.54838979 -68.26007909 239.82975337 C-68.26103834 238.41247228 -68.26201098 236.9951912 -68.26299687 235.57791013 C-68.27153656 222.31081755 -68.261739 209.04378732 -68.24559577 195.77670497 C-68.23219387 184.41097585 -68.23452236 173.04533867 -68.24835205 161.67961121 C-68.26443305 148.45762575 -68.27071271 135.23569483 -68.26151526 122.01370096 C-68.26055969 120.60184639 -68.25961657 119.1899918 -68.25868607 117.77813721 C-68.25799183 116.73634641 -68.25799183 116.73634641 -68.25728356 115.67350933 C-68.25470122 110.79637441 -68.2590483 105.9192743 -68.26612473 101.04214478 C-68.27545279 94.4691407 -68.26874232 87.89628272 -68.25144196 81.32328606 C-68.24748589 78.91551437 -68.24859601 76.50772803 -68.25522995 74.09996223 C-68.26347019 70.80458065 -68.25309353 67.50974818 -68.2381897 64.21440125 C-68.24488186 63.2695359 -68.25157403 62.32467055 -68.25846899 61.35117292 C-68.11368387 44.76114129 -60.43976431 29.05136864 -48.85723877 17.36076355 C-34.41823465 4.6994754 -18.99286868 -0.13412924 0 0 Z M12.26776123 82.04826355 C9.87978889 85.77069102 9.14276123 87.94959982 9.14276123 92.36076355 C10.52292544 96.50125618 12.36050362 99.17865246 16.07920837 101.53469849 C20.80504559 103.42650805 26.11096388 102.91128768 31.12127686 102.87834167 C32.42924728 102.88535095 33.73721771 102.89236023 35.08482361 102.89958191 C38.66135515 102.91777061 42.23742361 102.91076655 45.81396294 102.89806557 C49.56277559 102.88791461 53.3115495 102.89733705 57.06036377 102.90361023 C63.3549916 102.91088057 69.64943149 102.90131517 75.94403076 102.88224792 C83.21393028 102.86048019 90.48338103 102.86753201 97.75326967 102.88955355 C104.0031532 102.90772516 110.2529019 102.91025731 116.50280333 102.89979887 C120.2320513 102.89357355 123.96108857 102.89270159 127.69032288 102.90594482 C131.848566 102.91968097 136.00603957 102.90062507 140.16424561 102.87834167 C142.01127327 102.89048706 142.01127327 102.89048706 143.89561462 102.90287781 C150.23705939 102.83988546 154.39406313 102.76716792 159.14276123 98.36076355 C161.49587055 94.9449597 162.14276123 93.01619016 162.14276123 88.86076355 C160.91194633 84.55291141 159.41336596 82.41806797 156.14276123 79.36076355 C149.80775208 76.85188721 143.54128928 77.07827427 136.80096436 77.10197449 C135.57248276 77.09846985 134.34400116 77.09496521 133.07829285 77.09135437 C129.72495107 77.08408244 126.37185753 77.08575565 123.01852989 77.09211254 C119.49975642 77.09719621 115.98099315 77.09247453 112.46221924 77.08934021 C106.55444447 77.08570744 100.64671979 77.09048153 94.73895264 77.10002136 C87.92075412 77.1109046 81.10267524 77.10737854 74.28447962 77.09636855 C68.41760059 77.08727599 62.55075746 77.08602001 56.68387365 77.09124589 C53.18549484 77.09435478 49.68717215 77.09480477 46.188797 77.08817291 C42.28733718 77.08129279 38.38601005 77.09084434 34.48455811 77.10197449 C33.33317856 77.09792603 32.18179901 77.09387756 30.99552917 77.08970642 C20.78256406 77.02464557 20.78256406 77.02464557 12.26776123 82.04826355 Z M11.83026123 159.67326355 C9.8658749 162.80173068 9.21671291 164.66317964 9.14276123 168.36076355 C10.33344957 172.67700879 11.4034609 174.78899713 14.96098328 177.54034424 C20.32506951 180.40414295 26.11864909 179.90991107 32.0512085 179.86247253 C33.33981781 179.86787552 34.62842712 179.8732785 35.95608521 179.87884521 C39.47472937 179.89275392 42.99288205 179.88166351 46.51149869 179.865134 C50.20157287 179.85123671 53.89161988 179.85774878 57.58171082 179.86126709 C63.77621336 179.86396519 69.9705217 179.85052704 76.16497803 179.82731628 C83.31839483 179.8006972 90.47148727 179.79896461 97.62493664 179.81070465 C104.51861999 179.82149669 111.41218644 179.81528496 118.30586052 179.80114937 C121.23436191 179.79540309 124.16277738 179.79546148 127.09127998 179.80021477 C131.18226807 179.80588843 135.27277471 179.78663464 139.3637085 179.76481628 C140.57478775 179.76931793 141.785867 179.77381958 143.03364563 179.77845764 C149.75738422 179.71884853 154.80950091 179.46414385 159.95526123 174.67326355 C162.01090149 170.67017462 162.88761996 166.70706856 161.51776123 162.39201355 C159.22589706 157.88468067 156.95060421 156.21588453 152.14276123 154.36076355 C147.90933822 153.91282751 143.69338825 153.95111254 139.43963623 153.97257996 C138.16092651 153.967323 136.8822168 153.96206604 135.5647583 153.95664978 C132.0688671 153.94301072 128.57324247 153.94826055 125.0773468 153.95778704 C121.41262106 153.9654014 117.74791759 153.9583331 114.08319092 153.95362854 C107.92982908 153.94817615 101.77657539 153.95534899 95.62322998 153.96965027 C88.51699023 153.98597586 81.41100873 153.98068698 74.30477524 153.96417105 C68.19503449 153.95054141 62.08537132 153.94864372 55.97562027 153.95648706 C52.33024108 153.96115548 48.68498314 153.96181141 45.03961182 153.95187759 C40.97488194 153.941574 36.91059478 153.95586936 32.84588623 153.97257996 C31.64258667 153.96650726 30.43928711 153.96043457 29.19952393 153.95417786 C22.05223927 154.00863632 17.10042528 154.4030995 11.83026123 159.67326355 Z M12.14276123 235.36076355 C10.03210001 238.92250436 9.14276123 241.2862816 9.14276123 245.42326355 C10.68674135 249.95870515 13.12246248 253.35883388 17.47366863 255.51673383 C20.3360951 256.42190026 22.60105362 256.61247423 25.59824276 256.61523914 C26.68783383 256.62107134 27.77742491 256.62690353 28.90003389 256.63291246 C30.09146189 256.62913313 31.28288988 256.62535381 32.51042175 256.62145996 C33.78044527 256.62528551 35.05046878 256.62911106 36.35897785 256.63305253 C39.88201793 256.64334605 43.4049564 256.64114728 46.92800486 256.63687193 C50.72835111 256.63440718 54.52867274 256.64341574 58.32901001 256.65090942 C65.7733114 256.66366524 73.21757674 256.66544903 80.66188722 256.66310916 C86.71196905 256.66132689 92.76203992 256.66307368 98.81212044 256.6673336 C100.10321178 256.66822639 100.10321178 256.66822639 101.42038577 256.66913721 C103.16889071 256.67034894 104.91739565 256.67156308 106.6659006 256.67277958 C123.06693826 256.68365844 139.46795536 256.68149094 155.86899418 256.67539474 C170.87668999 256.67022478 185.88432091 256.68148247 200.89200389 256.70049296 C216.29878637 256.71985952 231.70553814 256.72812946 247.11233288 256.7243697 C255.76333537 256.72245592 264.41428262 256.72496244 273.06527519 256.73908424 C280.42958749 256.75098394 287.79381053 256.7524188 295.15812402 256.74029408 C298.91582957 256.73439555 302.67337174 256.73333272 306.43106651 256.74529648 C310.50354686 256.75811185 314.57563657 256.74771412 318.64811707 256.73498535 C320.43191297 256.74604678 320.43191297 256.74604678 322.25174516 256.75733167 C330.12175335 256.71748884 330.12175335 256.71748884 337.14276123 253.36076355 C339.93221522 250.13086946 341.03795149 248.09443175 341.64276123 243.86076355 C341.03795149 239.62709535 339.93221522 237.59065764 337.14276123 234.36076355 C331.40071877 230.36208013 325.3423472 230.93919989 318.62361145 230.9730835 C316.71222756 230.96500519 316.71222756 230.96500519 314.76222986 230.95676368 C311.23193567 230.94231155 307.70187499 230.94655298 304.17156804 230.9539305 C300.36166577 230.95866045 296.55181414 230.94615387 292.7419281 230.93591309 C285.28070329 230.91871647 277.81956265 230.91788684 270.35832316 230.92312599 C264.29396718 230.92716724 258.22963609 230.92572467 252.1652813 230.92037773 C251.30220259 230.91962931 250.43912388 230.91888089 249.54989127 230.91810979 C247.79655659 230.91657831 246.04322191 230.91503996 244.28988724 230.91349482 C227.84731541 230.89976671 211.40479117 230.9052097 194.96222042 230.91668003 C179.91967645 230.92661323 164.87725546 230.91367081 149.83473045 230.88974584 C134.38835439 230.86536366 118.94203562 230.85574477 103.4956407 230.86239856 C94.82392674 230.86589269 86.15230739 230.86364598 77.48060799 230.84614754 C70.09875613 230.8314366 62.71706549 230.83077558 55.33521683 230.84821845 C51.5692364 230.85673994 47.8035441 230.85885023 44.03757858 230.84356689 C39.95444959 230.82720159 35.87201785 230.84184581 31.78889465 230.85955811 C30.59940139 230.8499531 29.40990813 230.84034809 28.18436962 230.83045202 C21.64077098 230.88899119 17.39857824 231.31942603 12.14276123 235.36076355 Z " fill="#000000" transform="translate(67.85723876953125,63.63923645019531)"/>
<path d="M0 0 C0.91007813 -0.0721875 1.82015625 -0.144375 2.7578125 -0.21875 C7.65692548 0.91087004 10.34800299 4.03661177 13.875 7.5 C14.33285889 7.94531067 14.79071777 8.39062134 15.26245117 8.84942627 C18.42783017 11.93029272 21.56023289 15.04262434 24.67749023 18.17211914 C26.33007182 19.83012955 27.98802199 21.48263976 29.64648438 23.13476562 C30.70084219 24.18978311 31.75489038 25.24511014 32.80859375 26.30078125 C33.30330673 26.79347 33.79801971 27.28615875 34.307724 27.79377747 C37.96128386 31.47267077 39.08714198 33.4579486 39.375 38.625 C39.4471875 39.53507812 39.519375 40.44515625 39.59375 41.3828125 C37.35908172 51.07447166 24.17998001 60.34306539 17.2824707 67.23779297 C15.80006373 68.72319547 14.31786091 70.20880173 12.83584595 71.69459534 C8.82821804 75.71102159 4.81738521 79.72423226 0.80567575 83.73658133 C-1.70106671 86.24403599 -4.20709522 88.75220191 -6.71286964 91.26062393 C-15.45522421 100.01221401 -24.20014218 108.76123309 -32.94750977 117.5078125 C-41.10294106 125.6626416 -49.25276277 133.82304738 -57.4000079 141.9860543 C-64.39956412 148.99866946 -71.40295338 156.00744079 -78.40936214 163.01320946 C-82.5923887 167.1959808 -86.7738403 171.38029774 -90.95145226 175.56847763 C-94.87456566 179.50124571 -98.80241578 183.42921944 -102.73400497 187.35351372 C-104.17732106 188.79578109 -105.61892323 190.23976592 -107.05869865 191.68556786 C-109.02073476 193.65528539 -110.98880143 195.61877136 -112.95854187 197.58078003 C-113.52964886 198.15703058 -114.10075585 198.73328113 -114.68916911 199.32699382 C-120.12168403 204.71233892 -123.46879368 205.81018875 -130.99609375 205.80078125 C-131.75543716 205.80506638 -132.51478058 205.8093515 -133.2971344 205.81376648 C-134.89998377 205.81949833 -136.50285916 205.82001848 -138.10571289 205.81567383 C-140.55074692 205.81251518 -142.99456869 205.83598106 -145.43945312 205.86132812 C-146.99999848 205.86360147 -148.56054707 205.86430445 -150.12109375 205.86328125 C-151.2119352 205.87709587 -151.2119352 205.87709587 -152.32481384 205.89118958 C-156.77722117 205.85084686 -159.65225311 205.34169075 -163.125 202.5 C-166.42003129 198.4552173 -166.57907501 194.59632931 -166.55859375 189.56640625 C-166.5638356 188.81084946 -166.56907745 188.05529266 -166.57447815 187.27684021 C-166.58088071 185.6841657 -166.57958425 184.09144379 -166.57104492 182.4987793 C-166.5625375 180.07319197 -166.59131234 177.64996421 -166.62304688 175.22460938 C-166.62465929 173.6718757 -166.62408059 172.11913789 -166.62109375 170.56640625 C-166.63232773 169.84747696 -166.64356171 169.12854767 -166.65513611 168.38783264 C-166.54193654 160.13240656 -161.28675908 155.36645948 -155.77304077 149.90080261 C-155.13808359 149.26343101 -154.5031264 148.62605941 -153.84892809 147.96937352 C-151.72871389 145.84354175 -149.60145224 143.72490916 -147.47412109 141.60620117 C-145.94927964 140.08028639 -144.42487134 138.55393866 -142.90086365 137.02719116 C-138.76723816 132.88872374 -134.62739863 128.75652442 -130.48627806 124.62555861 C-126.15574797 120.30381512 -121.83049382 115.97679735 -117.50454712 111.65046692 C-110.2430907 104.38994657 -102.9777737 97.13330771 -95.70996094 89.87915039 C-87.29846818 81.48340322 -78.89223376 73.08242058 -70.48897684 64.67843074 C-62.41082346 56.59966789 -54.32982072 48.52376188 -46.24721146 40.44945717 C-42.80387678 37.00965959 -39.3613986 33.56900816 -35.91956711 30.12770653 C-31.87215586 26.0812969 -27.82221425 22.03743697 -23.77026558 17.99557114 C-22.28023029 16.50846593 -20.7910493 15.0205042 -19.3027668 13.53164482 C-17.2784769 11.50686707 -15.25115813 9.48517303 -13.22299194 7.46427917 C-12.33117771 6.57014204 -12.33117771 6.57014204 -11.42134702 5.65794152 C-7.4862055 1.74623494 -5.52235211 0.30765193 0 0 Z " fill="#000000" transform="translate(473.125,12.5)"/>
</svg>
