<?xml version="1.0" standalone="no"?>
<!DOCTYPE svg PUBLIC "-//W3C//DTD SVG 20010904//EN"
 "http://www.w3.org/TR/2001/REC-SVG-20010904/DTD/svg10.dtd">
<svg version="1.0" xmlns="http://www.w3.org/2000/svg"
 width="512.000000pt" height="512.000000pt" viewBox="0 0 512.000000 512.000000"
 preserveAspectRatio="xMidYMid meet">

<g transform="translate(0.000000,512.000000) scale(0.100000,-0.100000)"
fill="#000000" stroke="none">
<path d="M2437 5101 c-75 -25 -111 -49 -282 -190 -162 -135 -188 -154 -233
-169 -17 -6 -130 -20 -250 -32 -119 -12 -239 -28 -267 -37 -128 -41 -229 -141
-268 -268 -9 -27 -25 -148 -37 -267 -12 -120 -26 -233 -32 -250 -15 -45 -34
-71 -170 -235 -65 -79 -131 -163 -147 -188 -69 -109 -79 -260 -23 -378 17 -38
85 -131 172 -237 79 -96 151 -193 161 -215 12 -27 24 -111 39 -260 23 -244 35
-297 81 -369 83 -131 177 -179 391 -201 77 -8 141 -15 142 -17 2 -2 -121 -298
-272 -658 -172 -409 -275 -668 -276 -689 0 -41 50 -91 92 -91 15 0 132 30 260
66 129 36 240 63 246 61 7 -3 64 -99 126 -214 63 -114 127 -221 143 -237 24
-25 33 -28 69 -23 22 3 49 14 59 24 10 10 149 331 309 713 234 559 296 699
318 715 14 11 97 78 182 148 150 125 223 172 257 165 11 -2 97 -196 274 -618
141 -338 256 -616 254 -618 -1 -1 -83 21 -181 49 -300 86 -304 85 -444 -175
-52 -96 -98 -176 -101 -176 -3 0 -62 133 -130 296 -76 183 -131 301 -143 310
-49 34 -116 2 -116 -55 0 -16 65 -186 145 -377 153 -366 175 -404 231 -404 59
0 76 21 204 254 68 124 129 226 137 226 7 0 116 -29 242 -65 127 -36 244 -65
261 -65 43 0 90 47 90 89 0 18 -116 308 -275 688 -151 361 -273 658 -271 660
2 2 64 10 137 18 188 20 266 51 346 138 84 91 99 142 127 423 18 173 29 242
44 275 11 24 82 118 157 209 188 226 223 307 203 464 -13 95 -45 150 -203 341
-81 99 -155 196 -163 215 -8 19 -25 141 -38 272 -24 238 -35 286 -79 358 -51
82 -140 150 -230 175 -27 8 -149 24 -270 35 -147 15 -233 27 -260 39 -22 10
-107 73 -188 140 -246 202 -279 221 -412 227 -61 3 -94 0 -138 -15z m231 -160
c22 -11 107 -76 189 -143 182 -150 230 -183 296 -203 28 -8 148 -24 266 -35
236 -22 284 -35 342 -87 67 -61 77 -94 103 -360 33 -318 27 -305 237 -558 72
-88 140 -178 150 -200 21 -46 24 -130 7 -186 -6 -21 -45 -81 -87 -133 -42 -51
-113 -138 -157 -194 -112 -138 -121 -163 -149 -450 -21 -205 -27 -240 -50
-288 -54 -109 -104 -130 -400 -159 -284 -28 -310 -37 -447 -149 -56 -44 -143
-115 -194 -157 -101 -82 -141 -99 -226 -99 -77 0 -116 23 -308 181 -91 74
-178 143 -193 153 -57 36 -117 48 -351 72 -265 27 -298 36 -359 103 -52 58
-65 106 -87 342 -11 118 -27 238 -35 266 -20 66 -53 114 -203 296 -132 161
-159 204 -168 270 -13 90 13 141 164 324 76 93 148 183 161 201 43 61 59 130
81 357 11 121 28 241 36 268 21 62 89 130 151 151 27 8 147 25 268 36 226 22
295 38 357 81 18 13 107 84 197 158 182 150 229 175 317 167 28 -2 70 -14 92
-25z m-725 -3185 c18 -7 113 -80 212 -161 192 -158 246 -190 343 -203 34 -5
64 -11 67 -14 6 -5 -461 -1127 -474 -1141 -5 -5 -50 67 -100 160 -51 92 -107
182 -125 199 -56 53 -85 52 -306 -10 -107 -31 -196 -54 -198 -51 -2 2 112 280
254 619 278 665 260 631 327 602z"/>
<path d="M2426 4431 c-80 -12 -109 -69 -64 -126 l22 -28 95 6 c505 34 953
-290 1082 -781 29 -110 36 -301 15 -420 -78 -447 -427 -787 -875 -853 -108
-15 -291 -6 -392 20 -568 147 -905 729 -744 1284 83 286 274 516 542 651 77
39 94 85 48 131 -31 32 -63 31 -128 -1 -319 -160 -553 -467 -633 -830 -24
-111 -24 -349 0 -464 89 -415 389 -758 781 -889 240 -80 520 -82 750 -5 366
122 645 405 763 774 83 259 67 570 -42 821 -149 346 -466 607 -836 690 -94 21
-307 32 -384 20z"/>
<path d="M2930 3779 c-33 -15 -124 -99 -337 -311 l-292 -292 -103 101 c-84 81
-113 103 -157 118 -114 38 -240 -18 -285 -127 -20 -48 -20 -138 -1 -186 19
-44 371 -402 430 -437 58 -34 113 -40 182 -20 57 16 67 25 451 408 265 265
399 406 413 434 27 56 27 147 0 201 -58 113 -189 162 -301 111z m145 -154 c17
-16 25 -35 25 -57 0 -30 -34 -67 -384 -417 -343 -343 -388 -384 -416 -384 -28
0 -55 23 -221 189 -193 193 -203 206 -183 259 9 23 61 47 87 39 12 -3 81 -64
153 -135 115 -113 135 -129 164 -129 31 0 62 29 365 330 359 357 359 357 410
305z"/>
</g>
</svg>
