<?xml version="1.0" standalone="no"?>
<!DOCTYPE svg PUBLIC "-//W3C//DTD SVG 20010904//EN"
 "http://www.w3.org/TR/2001/REC-SVG-20010904/DTD/svg10.dtd">
<svg version="1.0" xmlns="http://www.w3.org/2000/svg"
 width="512.000000pt" height="512.000000pt" viewBox="0 0 512.000000 512.000000"
 preserveAspectRatio="xMidYMid meet">

<g transform="translate(0.000000,512.000000) scale(0.100000,-0.100000)"
fill="#000000" stroke="none">
<path d="M955 5106 c-84 -21 -147 -57 -211 -121 -65 -65 -105 -136 -123 -223
-16 -76 -16 -4329 0 -4404 37 -172 175 -310 347 -347 75 -16 3108 -16 3184 0
170 36 311 178 347 347 8 38 11 521 11 1657 l0 1605 -545 0 c-368 0 -561 4
-597 11 -171 37 -310 176 -347 347 -7 36 -11 229 -11 597 l0 545 -1002 -1
c-767 -1 -1015 -4 -1053 -13z m2575 -2116 c45 -23 80 -80 80 -130 0 -50 -35
-107 -80 -130 -38 -20 -57 -20 -971 -20 l-931 0 -40 22 c-101 57 -102 194 -2
254 l39 24 933 0 c915 0 934 0 972 -20z m0 -600 c45 -23 80 -80 80 -130 0 -50
-35 -107 -80 -130 -38 -20 -57 -20 -971 -20 l-931 0 -40 22 c-101 57 -102 194
-2 254 l39 24 933 0 c915 0 934 0 972 -20z m0 -600 c45 -23 80 -80 80 -130 0
-50 -35 -107 -80 -130 -38 -20 -57 -20 -971 -20 l-931 0 -40 22 c-101 57 -102
194 -2 254 l39 24 933 0 c915 0 934 0 972 -20z m-600 -600 c45 -23 80 -80 80
-130 0 -50 -35 -107 -80 -130 -38 -19 -58 -20 -671 -20 l-631 0 -40 22 c-101
57 -102 194 -2 254 l39 24 633 0 c615 0 634 -1 672 -20z"/>
<path d="M3310 4537 c0 -469 1 -500 19 -535 11 -22 35 -46 59 -60 l40 -22 496
2 496 3 -555 555 -555 555 0 -498z"/>
</g>
</svg>
