<?xml version="1.0" standalone="no"?>
<!DOCTYPE svg PUBLIC "-//W3C//DTD SVG 20010904//EN"
 "http://www.w3.org/TR/2001/REC-SVG-20010904/DTD/svg10.dtd">
<svg version="1.0" xmlns="http://www.w3.org/2000/svg"
 width="512.000000pt" height="512.000000pt" viewBox="0 0 512.000000 512.000000"
 preserveAspectRatio="xMidYMid meet">

<g transform="translate(0.000000,512.000000) scale(0.100000,-0.100000)"
fill="#000000" stroke="none">
<path d="M2438 4950 c-74 -13 -146 -39 -233 -83 -78 -39 -104 -64 -1137 -1096
-1150 -1149 -1081 -1073 -1063 -1168 9 -48 71 -109 120 -119 69 -13 101 2 191
88 l84 81 0 -1039 c0 -1139 -1 -1113 60 -1218 35 -61 118 -144 180 -179 105
-60 13 -58 1952 -55 l1773 3 69 29 c82 35 181 123 226 200 61 108 60 79 60
1220 l0 1039 84 -81 c90 -86 122 -101 191 -88 49 10 111 71 120 119 18 95 86
19 -1058 1163 -1146 1145 -1091 1096 -1270 1156 -71 23 -111 30 -196 33 -58 2
-127 0 -153 -5z m227 -326 c33 -8 80 -27 105 -41 27 -15 353 -333 838 -817
l792 -791 0 -1190 c0 -1113 -1 -1192 -18 -1224 -9 -19 -30 -44 -45 -55 -28
-20 -41 -21 -503 -24 l-474 -3 0 655 c0 440 -4 672 -11 708 -39 187 -200 348
-387 387 -71 15 -733 15 -804 0 -187 -39 -348 -200 -387 -387 -7 -36 -11 -268
-11 -707 l0 -655 -462 0 c-516 0 -509 -1 -555 69 l-23 34 0 1196 0 1196 793
791 c486 486 809 802 837 817 95 54 209 69 315 41z m262 -2719 c50 -21 72 -42
94 -90 17 -37 19 -81 19 -687 l0 -648 -480 0 -480 0 0 645 c0 558 2 651 15
682 21 50 42 72 90 94 36 17 71 19 373 19 277 0 339 -3 369 -15z"/>
</g>
</svg>
