<?xml version="1.0" standalone="no"?>
<!DOCTYPE svg PUBLIC "-//W3C//DTD SVG 20010904//EN"
 "http://www.w3.org/TR/2001/REC-SVG-20010904/DTD/svg10.dtd">
<svg version="1.0" xmlns="http://www.w3.org/2000/svg"
 width="512.000000pt" height="512.000000pt" viewBox="0 0 512.000000 512.000000"
 preserveAspectRatio="xMidYMid meet">

<g transform="translate(0.000000,512.000000) scale(0.100000,-0.100000)"
fill="#000000" stroke="none">
<path d="M1995 4954 c-203 -22 -391 -75 -560 -158 -322 -158 -536 -396 -611
-681 -27 -100 -24 -291 5 -400 45 -167 136 -321 262 -439 l72 -69 -22 -252
c-24 -266 -23 -283 19 -305 45 -24 66 -13 221 123 84 72 169 146 189 164 l37
32 89 -25 c136 -37 246 -54 394 -61 638 -28 1222 299 1385 776 192 566 -269
1144 -1020 1277 -87 15 -379 26 -460 18z m468 -183 c444 -88 772 -342 873
-676 26 -83 26 -267 0 -350 -57 -189 -189 -356 -377 -478 -110 -72 -164 -98
-287 -141 -179 -62 -299 -81 -517 -80 -204 0 -291 13 -476 70 -52 16 -97 24
-111 20 -12 -3 -77 -54 -143 -112 -73 -64 -121 -100 -123 -92 -1 8 4 83 12
167 8 88 11 163 6 175 -4 12 -40 48 -79 80 -86 71 -151 154 -202 261 -57 118
-74 191 -73 320 0 93 4 122 28 189 111 321 439 566 864 645 153 29 160 29 337
26 112 -2 192 -10 268 -24z"/>
<path d="M1705 3975 c-50 -49 -15 -135 55 -135 41 0 80 39 80 80 0 41 -39 80
-80 80 -19 0 -40 -9 -55 -25z"/>
<path d="M2105 3975 c-50 -49 -15 -135 55 -135 41 0 80 39 80 80 0 41 -39 80
-80 80 -19 0 -40 -9 -55 -25z"/>
<path d="M2505 3975 c-50 -49 -15 -135 55 -135 19 0 40 9 55 25 16 15 25 36
25 55 0 19 -9 40 -25 55 -15 16 -36 25 -55 25 -19 0 -40 -9 -55 -25z"/>
<path d="M3535 3374 c-28 -19 -56 -39 -64 -43 -11 -7 -8 -19 15 -67 23 -49 28
-72 28 -139 1 -112 -38 -193 -136 -288 l-71 -68 7 -72 c3 -40 9 -97 13 -127
l6 -54 -25 19 c-14 11 -60 49 -103 84 -89 71 -67 68 -245 36 -119 -22 -289
-16 -405 14 -44 12 -122 41 -173 66 -52 25 -95 45 -98 45 -2 0 -22 -28 -45
-62 -49 -71 -51 -66 63 -124 217 -110 453 -138 743 -89 40 7 41 6 203 -129
129 -108 170 -136 193 -136 34 0 79 39 79 67 0 10 -11 103 -24 208 l-24 189
54 55 c69 69 127 183 145 281 17 99 3 195 -44 295 -20 41 -37 75 -39 75 -2 0
-26 -16 -53 -36z"/>
<path d="M1081 2384 c-169 -45 -301 -180 -346 -351 -19 -74 -19 -232 0 -308
63 -239 296 -395 535 -358 197 31 364 190 400 382 15 79 12 218 -5 284 -67
259 -333 419 -584 351z m250 -173 c69 -33 112 -74 150 -143 34 -62 34 -65 34
-188 0 -123 0 -126 -34 -188 -38 -70 -70 -101 -145 -140 -43 -22 -64 -26 -136
-26 -78 -1 -90 2 -148 33 -69 37 -109 80 -144 151 -20 39 -23 61 -23 170 0
113 3 130 25 175 42 86 123 152 215 176 49 13 158 2 206 -20z"/>
<path d="M3801 2384 c-169 -45 -301 -180 -346 -351 -19 -74 -19 -232 0 -308
63 -239 296 -395 535 -358 197 31 364 190 400 382 15 79 12 218 -5 284 -67
259 -333 419 -584 351z m250 -173 c69 -33 112 -74 150 -143 34 -62 34 -65 34
-188 0 -123 0 -126 -34 -188 -38 -70 -70 -101 -145 -140 -43 -22 -64 -26 -136
-26 -78 -1 -90 2 -148 33 -69 37 -109 80 -144 151 -20 39 -23 61 -23 170 0
113 3 130 25 175 42 86 123 152 215 176 49 13 158 2 206 -20z"/>
<path d="M2441 2144 c-169 -45 -301 -180 -346 -351 -19 -74 -19 -232 0 -308
63 -239 296 -395 535 -358 197 31 364 190 400 382 15 79 12 218 -5 284 -67
259 -333 419 -584 351z m250 -173 c69 -33 112 -74 150 -143 34 -62 34 -65 34
-188 0 -123 0 -126 -34 -188 -38 -70 -70 -101 -145 -140 -43 -22 -64 -26 -136
-26 -78 -1 -90 2 -148 33 -69 37 -109 80 -144 151 -20 39 -23 61 -23 170 0
113 3 130 25 175 42 86 123 152 215 176 49 13 158 2 206 -20z"/>
<path d="M626 1269 c-62 -15 -153 -68 -197 -116 -22 -24 -55 -74 -72 -111
l-32 -67 -3 -247 -4 -248 81 0 81 0 0 216 c0 141 4 231 12 258 16 55 99 138
154 154 57 17 1056 17 1105 0 19 -6 46 -19 61 -30 l27 -18 48 56 c26 30 48 61
48 67 0 7 -35 30 -79 52 l-79 40 -556 2 c-315 1 -573 -3 -595 -8z"/>
<path d="M3339 1267 c-54 -15 -154 -70 -154 -85 0 -6 22 -36 48 -66 l48 -56
27 18 c15 11 42 24 61 30 49 17 1048 17 1105 0 55 -16 138 -99 154 -154 8 -27
12 -117 12 -258 l0 -216 81 0 81 0 -4 248 -3 248 -37 76 c-45 91 -103 147
-196 191 l-67 32 -555 2 c-419 2 -566 -1 -601 -10z"/>
<path d="M1986 1029 c-62 -15 -153 -68 -197 -116 -22 -24 -55 -74 -72 -111
l-32 -67 -3 -248 -4 -247 81 0 81 0 0 216 c0 141 4 231 12 258 16 55 99 138
154 154 59 17 1049 17 1108 0 55 -16 138 -99 154 -154 8 -27 12 -117 12 -258
l0 -216 81 0 81 0 -4 248 -3 248 -37 76 c-45 91 -103 147 -196 191 l-67 32
-555 2 c-315 1 -572 -3 -594 -8z"/>
</g>
</svg>
