<?xml version="1.0" standalone="no"?>
<!DOCTYPE svg PUBLIC "-//W3C//DTD SVG 20010904//EN"
 "http://www.w3.org/TR/2001/REC-SVG-20010904/DTD/svg10.dtd">
<svg version="1.0" xmlns="http://www.w3.org/2000/svg"
 width="512.000000pt" height="512.000000pt" viewBox="0 0 512.000000 512.000000"
 preserveAspectRatio="xMidYMid meet">

<g transform="translate(0.000000,512.000000) scale(0.100000,-0.100000)"
fill="#000000" stroke="none">
<path d="M895 4307 c-41 -19 -83 -70 -90 -110 -3 -18 -4 -670 -3 -1449 l3
-1417 21 -28 c49 -66 61 -69 301 -76 494 -15 818 -101 1201 -317 l72 -42 0
1571 0 1570 -52 29 c-186 105 -516 206 -823 252 -183 28 -584 38 -630 17z"/>
<path d="M3746 4309 c-364 -36 -711 -134 -983 -277 l-43 -22 0 -1571 0 -1571
73 42 c372 213 711 302 1200 317 240 7 252 10 301 76 l21 28 0 1444 c0 1442 0
1444 -21 1471 -49 67 -57 69 -267 70 -106 1 -232 -2 -281 -7z"/>
<path d="M352 3873 c-18 -9 -43 -30 -55 -47 l-22 -31 -3 -1441 -2 -1441 22
-33 c13 -18 36 -43 51 -54 28 -21 33 -21 885 -23 568 -2 852 0 842 7 -32 21
-221 91 -326 119 -195 55 -325 72 -604 80 -228 7 -261 10 -312 30 -68 26 -130
76 -176 139 -65 92 -62 16 -62 1429 l0 1283 -102 0 c-74 0 -112 -5 -136 -17z"/>
<path d="M4530 2608 c0 -1428 4 -1341 -68 -1437 -49 -65 -101 -105 -170 -132
-51 -19 -85 -23 -312 -30 -380 -11 -628 -61 -881 -178 l-64 -30 857 2 c852 2
857 2 885 23 15 11 38 36 51 54 l22 33 0 1429 c0 1583 5 1472 -64 1521 -27 19
-46 22 -143 25 l-113 4 0 -1284z"/>
</g>
</svg>
