<?xml version="1.0" standalone="no"?>
<!DOCTYPE svg PUBLIC "-//W3C//DTD SVG 20010904//EN"
 "http://www.w3.org/TR/2001/REC-SVG-20010904/DTD/svg10.dtd">
<svg version="1.0" xmlns="http://www.w3.org/2000/svg"
 width="512.000000pt" height="512.000000pt" viewBox="0 0 512.000000 512.000000"
 preserveAspectRatio="xMidYMid meet">

<g transform="translate(0.000000,512.000000) scale(0.100000,-0.100000)"
fill="#000000" stroke="none">
<path d="M363 4610 c-64 -26 -131 -89 -163 -155 l-25 -50 0 -1525 0 -1525 25
-50 c32 -65 98 -130 158 -157 42 -19 75 -22 313 -29 652 -19 1045 -91 1359
-249 156 -79 258 -159 390 -306 62 -69 111 -92 176 -80 30 6 58 29 158 131
193 196 376 300 666 379 286 77 573 112 1036 125 257 7 261 7 317 34 71 35
140 111 164 180 17 49 18 127 18 1552 l0 1500 -26 55 c-34 74 -76 120 -141
156 l-53 29 -270 -1 c-809 -3 -1411 -180 -1746 -513 -47 -48 -101 -110 -121
-139 l-35 -52 -51 69 c-303 407 -918 621 -1827 637 -256 4 -273 3 -322 -16z
m542 -311 c857 -59 1323 -292 1476 -738 18 -52 19 -109 19 -1297 l0 -1244 -77
51 c-346 227 -860 344 -1599 365 l-234 7 0 1436 0 1436 132 -3 c73 -1 201 -7
283 -13z m3733 -1422 l2 -1437 -117 0 c-155 0 -454 -17 -623 -35 -469 -51
-818 -156 -1093 -329 l-87 -55 2 1252 3 1252 29 70 c67 161 180 303 312 392
286 194 731 301 1339 322 116 4 215 7 220 6 7 -1 11 -490 13 -1438z"/>
</g>
</svg>
