<?xml version="1.0" encoding="UTF-8"?>
<svg version="1.1" xmlns="http://www.w3.org/2000/svg" width="512" height="512">
<path d="M0 0 C14.35546434 11.70990834 26.06794902 27.89121936 28.30664062 46.72021484 C29.82852716 69.37095944 26.55367714 88.53848718 11.45117188 106.38427734 C-1.06893989 120.02184899 -16.95217792 129.47080275 -35.69335938 130.72021484 C-35.36335938 135.67021484 -35.03335937 140.62021484 -34.69335938 145.72021484 C-33.64148438 144.68896484 -32.58960938 143.65771484 -31.50585938 142.59521484 C-22.63179102 134.81066734 -10.73876643 130.46384889 0.99414062 130.34521484 C2.27675781 130.31685547 3.559375 130.28849609 4.88085938 130.25927734 C8.30664062 130.72021484 8.30664062 130.72021484 10.72851562 132.31787109 C14.25347343 137.6838341 13.11967874 145.60082172 11.91113281 151.72412109 C9.74534266 160.45672587 5.97042308 167.751355 0.30664062 174.72021484 C-0.31984375 175.55294922 -0.94632812 176.38568359 -1.59179688 177.24365234 C-10.11704119 187.29012985 -22.89637924 192.86035005 -35.69335938 194.72021484 C-35.69335938 197.36021484 -35.69335938 200.00021484 -35.69335938 202.72021484 C-14.57335937 202.72021484 6.54664063 202.72021484 28.30664062 202.72021484 C28.30664062 208.00021484 28.30664062 213.28021484 28.30664062 218.72021484 C-3.37335938 218.72021484 -35.05335938 218.72021484 -67.69335938 218.72021484 C-67.53500602 248.8175258 -67.53500602 248.8175258 -67.33300781 278.91455078 C-67.31494141 284.73632812 -67.31494141 284.73632812 -67.31158447 287.4619751 C-67.30544308 289.36517069 -67.29137656 291.26835073 -67.27105713 293.17144775 C-67.24181069 296.05484036 -67.23773408 298.93728225 -67.23925781 301.82080078 C-67.21766916 303.09204615 -67.21766916 303.09204615 -67.19564438 304.38897324 C-67.22172873 308.07199186 -67.29705774 310.11518577 -69.34912109 313.24804688 C-72.32394987 315.116222 -74.15058529 315.20376757 -77.65527344 315.17431641 C-78.85621643 315.17401428 -80.05715942 315.17371216 -81.29449463 315.17340088 C-82.58627625 315.15275574 -83.87805786 315.1321106 -85.20898438 315.11083984 C-86.54847366 315.10337555 -87.8879739 315.0976835 -89.22747803 315.09368896 C-92.74587374 315.07844697 -96.26360453 315.03917902 -99.78173828 314.99487305 C-103.37458299 314.95388848 -106.96753558 314.93567124 -110.56054688 314.91552734 C-117.60508904 314.87268229 -124.6491807 314.80444931 -131.69335938 314.72021484 C-131.68447693 315.86391541 -131.67559448 317.00761597 -131.66644287 318.18597412 C-131.58540546 328.95689067 -131.5254172 339.72774548 -131.48611069 350.49889755 C-131.46522352 356.03666628 -131.43688494 361.57418917 -131.39160156 367.11181641 C-131.34818458 372.45455598 -131.32423078 377.79705889 -131.3138504 383.13996124 C-131.30645161 385.17976864 -131.2920037 387.21956289 -131.27043915 389.25926971 C-131.2414605 392.11339957 -131.23740108 394.96654781 -131.23925781 397.82080078 C-131.22487671 398.66668762 -131.21049561 399.51257446 -131.19567871 400.38409424 C-131.22164186 404.06515583 -131.29776106 406.11415951 -133.34338379 409.24804688 C-136.34536636 411.12867176 -138.21229336 411.20352944 -141.74707031 411.17431641 C-142.96803406 411.17401428 -144.1889978 411.17371216 -145.44696045 411.17340088 C-146.76061584 411.15275574 -148.07427124 411.1321106 -149.42773438 411.11083984 C-150.78964405 411.10337571 -152.1515645 411.09768359 -153.51348877 411.09368896 C-157.09106306 411.07844576 -160.66798359 411.03917665 -164.24530029 410.99487305 C-167.89846961 410.95389117 -171.55174499 410.93567181 -175.20507812 410.91552734 C-182.36813598 410.87267995 -189.53065593 410.80444599 -196.69335938 410.72021484 C-196.7529483 411.62860107 -196.81253723 412.5369873 -196.87393188 413.47290039 C-197.33109832 420.19080112 -197.84210817 426.86436778 -198.77929688 433.53271484 C-198.88174713 434.27553711 -198.98419739 435.01835937 -199.0897522 435.78369141 C-199.30404919 437.32294555 -199.52086279 438.8618515 -199.74023438 440.40039062 C-200.07170644 442.74387836 -200.38657964 445.08925241 -200.70117188 447.43505859 C-200.91370973 448.9469188 -201.12721583 450.45864328 -201.34179688 451.97021484 C-201.43254486 452.66091064 -201.52329285 453.35160645 -201.61679077 454.06323242 C-202.26212044 458.43724558 -203.4237345 461.92192029 -205.69335938 465.72021484 C-208.03366626 466.89036829 -209.39246188 466.84451749 -211.99997139 466.84326267 C-212.90963634 466.84525372 -213.81930128 466.84724477 -214.75653183 466.84929615 C-215.76235271 466.84638331 -216.76817358 466.84347047 -217.80447388 466.84046936 C-219.39962257 466.841751 -219.39962257 466.841751 -221.02699649 466.84305853 C-224.61388033 466.84471429 -228.20071808 466.83919036 -231.78759766 466.83374023 C-234.34943643 466.83345836 -236.91127529 466.83361611 -239.47311401 466.83418274 C-245.00066852 466.83441094 -250.52820801 466.83156245 -256.05575943 466.8259449 C-264.04773148 466.81782808 -272.03969781 466.81521449 -280.03167354 466.81395691 C-292.99719314 466.81176668 -305.96270646 466.80510737 -318.92822266 466.7956543 C-331.52522754 466.78647944 -344.12223073 466.77939896 -356.71923828 466.77514648 C-357.49533168 466.77488376 -358.27142509 466.77462104 -359.07103647 466.77435035 C-362.96435372 466.77304534 -366.85767098 466.77178163 -370.75098825 466.77053845 C-403.06511656 466.76016673 -435.37923699 466.74247501 -467.69335938 466.72021484 C-467.69335938 461.44021484 -467.69335938 456.16021484 -467.69335938 450.72021484 C-451.19335938 450.72021484 -434.69335938 450.72021484 -417.69335938 450.72021484 C-417.03335938 447.75021484 -416.37335938 444.78021484 -415.69335938 441.72021484 C-415.18440049 439.8879475 -414.6512446 438.06205834 -414.08374023 436.24707031 C-413.77779434 435.26188416 -413.47184845 434.276698 -413.15663147 433.26165771 C-412.82715012 432.21415344 -412.49766876 431.16664917 -412.15820312 430.08740234 C-411.80717026 428.96287659 -411.45613739 427.83835083 -411.09446716 426.67974854 C-410.33695891 424.25326222 -409.57819414 421.82716789 -408.81829834 419.40142822 C-407.61064655 415.53042472 -406.41817315 411.65502463 -405.22900391 407.77832031 C-401.27782426 394.92886809 -397.19870157 382.16417924 -392.72070312 369.48583984 C-381.74090421 337.89545535 -378.38452004 310.10331533 -380.69335938 276.72021484 C-381.23524902 277.13682373 -381.77713867 277.55343262 -382.33544922 277.98266602 C-392.00287788 285.40576112 -401.68904119 292.80781313 -411.50585938 300.03271484 C-412.56909424 300.83068481 -412.56909424 300.83068481 -413.65380859 301.64477539 C-420.76103306 306.82645944 -427.76530584 309.86162974 -436.69335938 308.72021484 C-442.91823566 307.252191 -448.43710848 304.33886645 -451.91601562 298.75927734 C-455.62040694 291.61604249 -456.8623593 285.14126166 -454.56835938 277.22021484 C-451.95971123 270.06159901 -446.70589486 265.56421054 -441.02929688 260.73583984 C-438.19504012 258.290227 -435.44393526 255.75881187 -432.69335938 253.22021484 C-428.78400652 249.61959069 -424.83468251 246.07602823 -420.81835938 242.59521484 C-418.07512444 240.17471343 -415.38454695 237.69817307 -412.69335938 235.22021484 C-408.73247034 231.57393568 -404.74700424 227.96581361 -400.66210938 224.45849609 C-399.23517166 223.19860069 -397.84331716 221.89860714 -396.47460938 220.57568359 C-380.96337545 205.79468633 -365.50442343 202.27998256 -344.66601562 202.27880859 C-342.82717349 202.26701072 -340.98834084 202.25364069 -339.14952087 202.23878479 C-334.33245561 202.20279223 -329.51547442 202.18245931 -324.69830322 202.16723633 C-316.99436667 202.14230708 -309.29061593 202.10229006 -301.58685112 202.04533577 C-298.91715343 202.02919338 -296.24763624 202.02524656 -293.57789612 202.02232361 C-277.68302498 201.96116029 -263.24188456 201.11822851 -251.00146484 189.63012695 C-249.50602623 188.10058773 -248.02609323 186.55576294 -246.56054688 184.99755859 C-245.75779327 184.17445694 -244.95503967 183.35135529 -244.12796021 182.50331116 C-241.59292572 179.90230207 -239.07873962 177.28251115 -236.56835938 174.65771484 C-234.04994704 172.03032113 -231.52701633 169.40825691 -228.98733521 166.80140686 C-227.41635081 165.18862951 -225.85710231 163.56430118 -224.31222534 161.92649841 C-218.61621498 156.07457406 -212.5323971 151.63678552 -204.37304688 150.09130859 C-196.73438614 150.27216825 -191.40142053 151.26914802 -185.72070312 156.55615234 C-180.39211326 162.26770041 -178.16040795 167.4512063 -178.38476562 175.29052734 C-179.32467181 182.69080134 -182.41312974 188.07082834 -187.85742188 193.03271484 C-189.68314747 194.71082858 -191.27107716 196.46059176 -192.88085938 198.34521484 C-196.03418368 202.00165381 -199.2860869 205.55505685 -202.56835938 209.09521484 C-206.8910087 213.75947781 -211.17152695 218.45715769 -215.41601562 223.19287109 C-217.99145713 226.05103688 -220.59021701 228.88731746 -223.19335938 231.72021484 C-227.27634796 236.16406829 -231.32572485 240.63643455 -235.35351562 245.13037109 C-237.10135377 247.06495655 -238.8582214 248.98849373 -240.62695312 250.90380859 C-241.37525391 251.71495117 -241.37525391 251.71495117 -242.13867188 252.54248047 C-243.11214045 253.59622197 -244.08732363 254.64838282 -245.06445312 255.69873047 C-249.13641477 260.1080494 -250.93057038 262.66040343 -251.17431641 268.69433594 C-251.22580841 269.9276767 -251.27730042 271.16101746 -251.33035278 272.43173218 C-251.51152989 278.1415044 -251.6308494 283.85213922 -251.72314453 289.56396484 C-251.77608114 292.55568784 -251.87261401 295.54078528 -252.01025391 298.52978516 C-252.77197183 315.48114873 -252.84011242 328.65936992 -240.94314575 342.08651733 C-239.55079659 343.57128485 -238.15299049 345.05095581 -236.74951172 346.52520752 C-228.58304367 355.24316912 -226.64816353 361.37505695 -226.83398438 373.34521484 C-226.83434915 374.74186333 -226.83232939 376.13851423 -226.82806396 377.53515625 C-226.82677702 380.44705901 -226.84949533 383.35743776 -226.890625 386.26904297 C-226.94170005 389.97452801 -226.9394901 393.67762076 -226.92001724 397.3833313 C-226.90964933 400.26282014 -226.92423713 403.14177299 -226.9464035 406.0211792 C-226.958666 408.04272813 -226.9532321 410.06436 -226.94732666 412.0859375 C-227.10608989 421.00661762 -228.46040333 428.16634221 -234.68267822 434.86035156 C-241.48490947 441.34399311 -248.30140348 443.28662301 -257.62475586 443.20068359 C-266.14753511 442.90167322 -271.86265541 439.99637011 -277.63085938 433.84521484 C-281.44900829 429.36100064 -284.0140728 424.54333301 -283.69726562 418.59936523 C-283.55988406 417.08794885 -283.41225784 415.57743815 -283.25585938 414.06787109 C-281.3742092 397.4094178 -281.3742092 397.4094178 -285.90704346 381.91845703 C-292.59427543 374.71020333 -302.58506252 370.86346669 -311.69335938 367.72021484 C-316.12138775 374.49657138 -319.88699951 381.58487584 -323.64984131 388.74206543 C-325.53644069 392.32952977 -327.43358085 395.91141342 -329.33007812 399.49365234 C-329.70602112 400.20420776 -330.08196411 400.91476318 -330.46929932 401.64685059 C-333.62768679 407.61060186 -336.83038991 413.54926201 -340.06835938 419.47021484 C-340.482229 420.22705566 -340.89609863 420.98389648 -341.32250977 421.76367188 C-346.43361441 431.08929962 -351.56850495 440.40229771 -356.69335938 449.72021484 C-311.15335938 450.05021484 -265.61335938 450.38021484 -218.69335938 450.72021484 C-218.36335937 446.10021484 -218.03335938 441.48021484 -217.69335938 436.72021484 C-217.36437523 433.77006864 -217.02014973 430.84438334 -216.60742188 427.90771484 C-216.50497162 427.16489258 -216.40252136 426.42207031 -216.29696655 425.65673828 C-216.08266956 424.11748414 -215.86585596 422.57857819 -215.64648438 421.04003906 C-215.31501231 418.69655133 -215.00013911 416.35117728 -214.68554688 414.00537109 C-214.47300902 412.49351089 -214.25950292 410.98178641 -214.04492188 409.47021484 C-213.95417389 408.77951904 -213.8634259 408.08882324 -213.76992798 407.37719727 C-213.12459831 403.00318411 -211.96298425 399.5185094 -209.69335938 395.72021484 C-207.01236884 394.37971958 -204.96024732 394.60040964 -201.95849609 394.60668945 C-200.15685501 394.60680275 -200.15685501 394.60680275 -198.31881714 394.60691833 C-196.36566086 394.61466026 -196.36566086 394.61466026 -194.37304688 394.62255859 C-193.03069105 394.62442346 -191.68833454 394.62584704 -190.34597778 394.62684631 C-186.81140263 394.63066606 -183.2768685 394.64049172 -179.74230957 394.65155029 C-176.13615474 394.66177607 -172.52999328 394.66634644 -168.92382812 394.67138672 C-161.84698841 394.68211447 -154.77017657 394.6991844 -147.69335938 394.72021484 C-147.70224182 393.57651428 -147.71112427 392.43281372 -147.72027588 391.25445557 C-147.80131329 380.48353902 -147.86130155 369.71268421 -147.90060806 358.94153214 C-147.92149523 353.40376341 -147.94983381 347.86624051 -147.99511719 342.32861328 C-148.03853417 336.98587371 -148.06248797 331.64337079 -148.07286835 326.30046844 C-148.08026714 324.26066105 -148.09471505 322.2208668 -148.1162796 320.18115997 C-148.14525825 317.32703012 -148.14931767 314.47388187 -148.14746094 311.61962891 C-148.16184204 310.77374207 -148.17622314 309.92785522 -148.19104004 309.05633545 C-148.16504947 305.37138755 -148.09066552 303.32677748 -146.03759766 300.19238281 C-143.06276888 298.32420769 -141.23613346 298.23666212 -137.73144531 298.26611328 C-136.53050232 298.26641541 -135.32955933 298.26671753 -134.09222412 298.26702881 C-132.8004425 298.28767395 -131.50866089 298.30831909 -130.17773438 298.32958984 C-128.83824509 298.33705413 -127.49874485 298.34274618 -126.15924072 298.34674072 C-122.64084501 298.36198271 -119.12311422 298.40125067 -115.60498047 298.44555664 C-112.01213576 298.4865412 -108.41918317 298.50475844 -104.82617188 298.52490234 C-97.78162971 298.56774739 -90.73753805 298.63598038 -83.69335938 298.72021484 C-83.70224182 297.57651428 -83.71112427 296.43281372 -83.72027588 295.25445557 C-83.80131329 284.48353902 -83.86130155 273.71268421 -83.90060806 262.94153214 C-83.92149523 257.40376341 -83.94983381 251.86624051 -83.99511719 246.32861328 C-84.03853417 240.98587371 -84.06248797 235.64337079 -84.07286835 230.30046844 C-84.08026714 228.26066105 -84.09471505 226.2208668 -84.1162796 224.18115997 C-84.14525825 221.32703012 -84.14931767 218.47388187 -84.14746094 215.61962891 C-84.16184204 214.77374207 -84.17622314 213.92785522 -84.19104004 213.05633545 C-84.16416171 209.24551951 -84.1451323 207.34108781 -81.85400391 204.19238281 C-78.86259074 202.15416571 -76.77527045 202.2641801 -73.17773438 202.32958984 C-71.30214844 202.34892578 -71.30214844 202.34892578 -69.38867188 202.36865234 C-67.43574219 202.41892578 -67.43574219 202.41892578 -65.44335938 202.47021484 C-64.1259375 202.48826172 -62.80851562 202.50630859 -61.45117188 202.52490234 C-58.1978363 202.57205213 -54.94596313 202.63785441 -51.69335938 202.72021484 C-51.69335938 200.08021484 -51.69335938 197.44021484 -51.69335938 194.72021484 C-52.22960937 194.66865234 -52.76585937 194.61708984 -53.31835938 194.56396484 C-59.4005703 193.68364484 -64.48961121 191.62452666 -69.94335938 188.90771484 C-70.95269531 188.41078125 -70.95269531 188.41078125 -71.98242188 187.90380859 C-83.70263613 181.88156412 -91.67442011 171.79228467 -96.69335938 159.72021484 C-97.17289062 158.56972656 -97.17289062 158.56972656 -97.66210938 157.39599609 C-100.21993534 150.23171504 -100.81595761 142.23366757 -99.69335938 134.72021484 C-98.10351562 132.30615234 -98.10351562 132.30615234 -95.69335938 130.72021484 C-82.1128871 128.50032995 -68.9110304 133.18860317 -57.69335938 140.72021484 C-56.04335938 142.37021484 -54.39335937 144.02021484 -52.69335938 145.72021484 C-52.36335938 140.77021484 -52.03335937 135.82021484 -51.69335938 130.72021484 C-52.93085938 130.63771484 -54.16835938 130.55521484 -55.44335938 130.47021484 C-73.53450753 128.40022454 -90.19263011 117.51782371 -101.47070312 103.51318359 C-114.59586617 85.73533693 -118.0054865 66.04910827 -115.41650391 44.40576172 C-112.25411211 25.61980876 -100.35205978 9.86196277 -85.48242188 -1.46728516 C-59.87580841 -18.10799755 -24.79476609 -18.7390663 0 0 Z " fill="#000000" transform="translate(475.693359375,29.27978515625)"/>
<path d="M0 0 C3.2121582 0.99121094 3.2121582 0.99121094 5.2121582 2.99121094 C5.86667112 7.53980071 5.63628735 9.40776424 2.90356445 13.16699219 C1.8774822 14.22914178 0.83342931 15.27414293 -0.2253418 16.30371094 C-1.33792177 17.44374991 -2.44989622 18.58438012 -3.5612793 19.72558594 C-4.11267578 20.28052734 -4.66407227 20.83546875 -5.23217773 21.40722656 C-7.34517285 23.55868801 -9.34942797 25.79813535 -11.3503418 28.05371094 C-14.638379 31.72228047 -17.95457946 35.36375271 -21.2878418 38.99121094 C-24.64077297 42.64048265 -27.97782536 46.30290691 -31.2878418 49.99121094 C-34.59785901 53.67951584 -37.9349868 57.34186859 -41.2878418 60.99121094 C-45.4112115 65.4802137 -49.50824711 69.99159087 -53.5769043 74.53027344 C-55.14918245 76.28033569 -56.72801038 78.02452315 -58.3112793 79.76464844 C-59.53717773 81.11429688 -59.53717773 81.11429688 -60.7878418 82.49121094 C-61.9015918 83.71324219 -61.9015918 83.71324219 -63.0378418 84.95996094 C-66.06484715 88.47344929 -65.93308598 90.7855527 -65.99316406 95.36865234 C-66.00319678 96.03300985 -66.0132295 96.69736736 -66.02356625 97.38185692 C-66.05498464 99.53546012 -66.07973604 101.6890817 -66.10424805 103.84277344 C-66.13222473 105.81540161 -66.13222473 105.81540161 -66.1607666 107.82788086 C-66.2292498 112.75725355 -66.28927983 117.68674074 -66.3503418 122.61621094 C-66.4947168 133.62996094 -66.6390918 144.64371094 -66.7878418 155.99121094 C-98.4678418 155.99121094 -130.1478418 155.99121094 -162.7878418 155.99121094 C-163.0378418 122.74121094 -163.0378418 122.74121094 -163.08569336 112.25195312 C-163.11505246 109.51398016 -163.14587632 106.77602234 -163.1784668 104.03808594 C-163.17891998 102.97282684 -163.17891998 102.97282684 -163.17938232 101.88604736 C-163.18180136 99.78862549 -163.20914411 97.69284095 -163.24194336 95.59570312 C-163.25082581 94.41433777 -163.25970825 93.23297241 -163.26885986 92.01580811 C-163.89249284 88.38131064 -164.88709016 87.20020597 -167.7878418 84.99121094 C-170.95538084 84.26199332 -172.85793941 84.47347001 -175.71020508 86.06152344 C-177.99119314 87.62819785 -180.17052403 89.28654853 -182.3503418 90.99121094 C-183.17171631 91.61479492 -183.99309082 92.23837891 -184.83935547 92.88085938 C-187.49924265 94.90443031 -190.14356498 96.94729776 -192.7878418 98.99121094 C-194.59402503 100.37286949 -196.4013181 101.7530784 -198.2097168 103.13183594 C-199.10215088 103.81246094 -199.99458496 104.49308594 -200.9140625 105.19433594 C-204.40766628 107.85637121 -207.90275374 110.51643872 -211.40063477 113.17285156 C-212.92419866 114.33336536 -214.44441894 115.49829097 -215.96020508 116.66894531 C-217.84963313 118.1256555 -219.75327174 119.56106933 -221.6628418 120.99121094 C-223.20584961 122.16683594 -223.20584961 122.16683594 -224.7800293 123.36621094 C-228.40045039 125.3221787 -230.72900832 125.43185631 -234.7878418 124.99121094 C-237.38471761 122.81318607 -237.73453515 121.47491938 -238.10424805 118.12011719 C-237.70745316 114.19625667 -236.6538653 113.19219541 -233.7878418 110.55371094 C-232.96155273 109.7815625 -232.13526367 109.00941406 -231.28393555 108.21386719 C-230.46022461 107.48039062 -229.63651367 106.74691406 -228.7878418 105.99121094 C-228.11881836 105.39179688 -227.44979492 104.79238281 -226.76049805 104.17480469 C-225.47199418 103.0391295 -224.17620879 101.91166971 -222.8737793 100.79199219 C-216.86470438 95.60438257 -211.02946088 90.21351657 -205.1628418 84.86621094 C-201.46076593 81.4955097 -197.7259908 78.17289365 -193.9362793 74.90136719 C-191.75166974 72.95905069 -189.63588025 70.9518971 -187.51538086 68.94018555 C-176.80268292 58.86094296 -165.98034263 51.45674456 -150.85009766 51.63818359 C-150.00641632 51.63602341 -149.16273499 51.63386322 -148.29348755 51.63163757 C-146.47661734 51.62857026 -144.65972603 51.6320978 -142.84287834 51.64165115 C-139.95171358 51.65551791 -137.0612256 51.64887475 -134.1700592 51.6368103 C-125.95512301 51.60604072 -117.74034835 51.61059914 -109.52539062 51.63085938 C-104.48327745 51.64187565 -99.44167252 51.62837663 -94.39962959 51.60096359 C-92.49538035 51.59557996 -90.59107844 51.59943869 -88.68687248 51.61336136 C-65.39535149 51.78160777 -49.58524988 45.27376948 -32.7878418 28.99121094 C-30.33948986 26.53088827 -27.92671776 24.03745411 -25.51831055 21.53808594 C-24.26766406 20.24771694 -23.01701298 18.95735239 -21.76635742 17.66699219 C-19.84947538 15.68793966 -17.93981964 13.70364262 -16.046875 11.70166016 C-14.18061143 9.73270347 -12.29000728 7.79018251 -10.39331055 5.85058594 C-9.8327446 5.24559265 -9.27217865 4.64059937 -8.69462585 4.01727295 C-5.59077076 0.89144688 -4.59119206 -0.0106531 0 0 Z " fill="#00B3D7" transform="translate(274.787841796875,196.0087890625)"/>
<path d="M0 0 C11.19382334 9.06786464 19.42800311 23.14238956 21.06542969 37.53051758 C22.15732933 54.71996681 17.53468726 69.15572653 6.578125 82.6328125 C-2.54953638 92.53942091 -16.75299586 100.04834067 -30.3359375 100.78125 C-46.7928576 101.1149725 -61.94684084 96.98755753 -74.265625 85.4765625 C-86.45275979 72.49027134 -91.89833429 57.31153071 -91.484375 39.76953125 C-90.77081531 26.26838735 -84.00720975 12.65767979 -74.171875 3.4453125 C-52.00653627 -15.08919851 -23.82304841 -17.05318933 0 0 Z " fill="#EE6720" transform="translate(467.171875,43.5546875)"/>
<path d="M0 0 C0.98055359 -0.01781525 1.96110718 -0.03563049 2.97137451 -0.0539856 C12.0399706 -0.20869964 21.10966237 -0.29592539 30.17928314 -0.36397934 C36.27477747 -0.41014776 42.36834883 -0.47751952 48.46289062 -0.59667969 C54.35165033 -0.71140433 60.23868419 -0.77187441 66.12849426 -0.79450226 C68.37090653 -0.8122669 70.61325396 -0.84907068 72.85502625 -0.90550995 C90.40200929 -1.32634073 90.40200929 -1.32634073 95.88571167 2.58399963 C98.17178141 5.37094149 99.91109354 8.14747093 101.66601562 11.28808594 C103.27881744 13.14531402 103.27881744 13.14531402 104.92041016 14.69213867 C114.53068072 25.07242886 114.11037124 36.16182284 113.66064453 49.73413086 C113.54020767 53.37501103 113.49662061 57.01066874 113.46679688 60.65332031 C113.43081261 62.98086611 113.39060056 65.30835126 113.34570312 67.63574219 C113.31716751 69.25767235 113.31716751 69.25767235 113.28805542 70.91236877 C113.09774941 76.37281482 112.84148708 80.63240896 109.66601562 85.28808594 C105.35914832 88.22458638 101.82213746 89.10221044 96.66601562 88.28808594 C92.84955664 85.87529477 90.10891334 83.61677908 88.66601562 79.28808594 C88.5723803 77.91293612 88.53076301 76.53383581 88.52416992 75.15551758 C88.51361824 73.91391624 88.51361824 73.91391624 88.50285339 72.64723206 C88.49868912 71.7565654 88.49452484 70.86589874 88.49023438 69.94824219 C88.46704213 68.06216324 88.44292503 66.17609549 88.41796875 64.29003906 C88.38281134 61.31641076 88.35348234 58.34319594 88.34008789 55.36938477 C88.32463064 52.49932942 88.28444366 49.63047968 88.24023438 46.76074219 C88.243097 45.42777855 88.243097 45.42777855 88.24601746 44.06788635 C88.17956478 39.21841659 88.17956478 39.21841659 86.07446289 34.96923828 C82.97828628 32.80803482 79.8212073 30.80956343 76.55664062 28.91699219 C75.52818024 28.31068214 75.52818024 28.31068214 74.47894287 27.69212341 C72.29461228 26.40587364 70.10554058 25.12796966 67.91601562 23.85058594 C65.7460142 22.57750878 63.57702926 21.30271804 61.40838623 20.02732849 C60.01858661 19.2104504 58.62801392 18.39488601 57.2366333 17.58070374 C53.73150524 15.52549749 50.26997967 13.42653197 46.85351562 11.22558594 C43.35933879 9.10167453 41.66964042 8.46916268 37.66601562 9.28808594 C34.09563228 12.27028994 32.07322871 15.827895 29.97851562 19.90527344 C29.63951736 20.5500061 29.3005191 21.19473877 28.95124817 21.85900879 C28.22620665 23.23982778 27.50448193 24.6223926 26.78579712 26.00653076 C25.26977549 28.92619349 23.73784748 31.8374035 22.20674133 34.74917603 C21.4377593 36.2119389 20.66960033 37.67513477 19.90226746 39.13876343 C16.82070869 45.01325772 13.67192638 50.84859569 10.47851562 56.66308594 C6.1259117 64.60018722 1.82316078 72.5627489 -2.45898438 80.53808594 C-6.64775713 88.33145938 -10.85725104 96.11196914 -15.14648438 103.85058594 C-15.5610791 104.60049805 -15.97567383 105.35041016 -16.40283203 106.12304688 C-19.20994251 111.16404407 -19.20994251 111.16404407 -20.33398438 112.28808594 C-22.11469684 112.37534817 -23.89881578 112.39507635 -25.68164062 112.38574219 C-26.76123047 112.38251953 -27.84082031 112.37929688 -28.953125 112.37597656 C-30.08943359 112.36759766 -31.22574219 112.35921875 -32.39648438 112.35058594 C-33.53666016 112.34607422 -34.67683594 112.3415625 -35.8515625 112.33691406 C-38.67908789 112.32508341 -41.50651077 112.30860003 -44.33398438 112.28808594 C-43.15798329 106.66601086 -41.77461116 101.20196569 -40.02148438 95.72558594 C-39.57737215 94.32848288 -39.13336471 92.93134651 -38.68945312 91.53417969 C-38.46435059 90.83019043 -38.23924805 90.12620117 -38.00732422 89.40087891 C-36.93451398 86.03463531 -35.88503941 82.66117177 -34.83398438 79.28808594 C-34.41743829 77.95471493 -34.00077141 76.62138165 -33.58398438 75.28808594 C-33.37773438 74.62808594 -33.17148438 73.96808594 -32.95898438 73.28808594 C-30.66731771 65.9547526 -28.37565104 58.62141927 -26.08398438 51.28808594 C-25.87789551 50.62856934 -25.67180664 49.96905273 -25.45947266 49.28955078 C-25.04125247 47.95131148 -24.62295776 46.61309547 -24.20458984 45.27490234 C-23.18609022 42.01681147 -22.1690371 38.75828839 -21.15429688 35.49902344 C-20.13040586 32.21088741 -19.10236551 28.92407347 -18.07128906 25.63818359 C-17.52957491 23.91151457 -16.98867765 22.1845892 -16.44824219 20.45751953 C-15.49679959 17.42082374 -14.5408329 14.38558221 -13.58398438 11.35058594 C-13.27799316 10.37202637 -12.97200195 9.3934668 -12.65673828 8.38525391 C-12.22627197 7.02424561 -12.22627197 7.02424561 -11.78710938 5.63574219 C-11.5309082 4.82113525 -11.27470703 4.00652832 -11.01074219 3.16723633 C-9.33777772 -1.47807663 -4.21694006 0.06165754 0 0 Z " fill="#0076B4" transform="translate(119.333984375,367.7119140625)"/>
<path d="M0 0 C8.80288754 6.34043826 15.4186507 14.72648904 17.58203125 25.4921875 C18.92007691 37.90936834 17.85729499 48.88109459 10.39453125 59.2421875 C3.58210875 67.3274193 -4.72289951 73.55522767 -15.48876953 74.71533203 C-28.40007937 75.61089799 -39.16843729 74.04490094 -49.3515625 65.46484375 C-57.86959925 57.33325857 -62.42046403 48.68416257 -62.88867188 36.85693359 C-63.04371176 24.34263074 -60.22647828 14.71931927 -51.41796875 5.4921875 C-37.63784493 -7.66275112 -16.31305228 -10.17259803 0 0 Z " fill="#000000" transform="translate(182.41796875,149.5078125)"/>
<path d="M0 0 C3.51455266 4.39036995 3.80443042 9.05485084 4.38671875 14.45703125 C4.54682182 15.81147591 4.54682182 15.81147591 4.7101593 17.19328308 C5.04705946 20.0651926 5.36749036 22.93866437 5.6875 25.8125 C5.91362801 27.76509998 6.14082957 29.71757595 6.36914062 31.66992188 C6.92520786 36.44526738 7.46651689 41.22208096 8 46 C6.10507994 46.33848652 4.20901534 46.67056911 2.3125 47 C1.25675781 47.185625 0.20101562 47.37125 -0.88671875 47.5625 C-4 48 -4 48 -9 48 C-9.99 44.04 -10.98 40.08 -12 36 C-12.96421875 37.76988281 -13.9284375 39.53976563 -14.921875 41.36328125 C-15.86784444 43.08132869 -16.81387865 44.79934131 -17.76171875 46.51635742 C-18.41664255 47.70664259 -19.06837913 48.89868743 -19.71679688 50.0925293 C-20.65166254 51.81242403 -21.59913861 53.52544517 -22.546875 55.23828125 C-23.11245117 56.26993408 -23.67802734 57.30158691 -24.26074219 58.36450195 C-27.56994672 63.37894087 -31.85530306 64.87500804 -37.328125 66.8984375 C-38.78342673 67.46520719 -40.23782716 68.03429555 -41.69140625 68.60546875 C-43.95969118 69.49297365 -46.2290193 70.36734067 -48.51708984 71.20263672 C-60.05329027 75.44119285 -65.51548683 79.55179182 -71 91 C-72.2106284 93.15913196 -73.43318095 95.31162429 -74.66796875 97.45703125 C-75.84402133 99.57392589 -77.01721201 101.69241307 -78.1875 103.8125 C-81.96901035 110.65228102 -85.78371595 117.4175151 -90 124 C-94.06225548 123.42176904 -96.84762346 122.10882263 -100.3125 119.9375 C-101.19550781 119.38964844 -102.07851563 118.84179688 -102.98828125 118.27734375 C-103.65214844 117.85582031 -104.31601562 117.43429687 -105 117 C-104.40411826 112.76272675 -102.92822534 109.74275948 -100.7890625 106.0546875 C-100.46514526 105.49118088 -100.14122803 104.92767426 -99.80749512 104.34709167 C-98.75408289 102.51864799 -97.69047111 100.69643971 -96.625 98.875 C-95.52300114 96.9826394 -94.42195933 95.08972539 -93.32125854 93.1966095 C-92.58643889 91.93304391 -91.85070085 90.67001197 -91.11404419 89.40751648 C-88.94583043 85.67878891 -86.86095657 81.91891814 -84.84375 78.10546875 C-84.37759277 77.24260254 -83.91143555 76.37973633 -83.43115234 75.49072266 C-82.591838 73.93038238 -81.77257315 72.35899774 -80.97900391 70.77490234 C-77.63203902 64.66630356 -73.33846903 62.54733075 -67 60 C-65.44273193 59.37266968 -65.44273193 59.37266968 -63.85400391 58.73266602 C-54.68571445 55.09878545 -54.68571445 55.09878545 -50.28125 53.45703125 C-42.58587108 50.36993157 -38.73233978 47.40515518 -35 40 C-34.29484437 38.75878857 -33.58916462 37.51787467 -32.8828125 36.27734375 C-32.30273438 35.17519531 -31.72265625 34.07304687 -31.125 32.9375 C-30.52945313 31.81214844 -29.93390625 30.68679687 -29.3203125 29.52734375 C-28.66675781 28.27630859 -28.66675781 28.27630859 -28 27 C-31.96 28.32 -35.92 29.64 -40 31 C-41.03275341 28.73392948 -42.05133551 26.46318061 -43.0625 24.1875 C-43.35705078 23.54490234 -43.65160156 22.90230469 -43.95507812 22.24023438 C-46.11328125 17.33984375 -46.11328125 17.33984375 -45 14 C-42.47145341 12.6813341 -40.01367834 11.54802967 -37.38671875 10.4609375 C-36.23777885 9.97145126 -36.23777885 9.97145126 -35.06562805 9.47207642 C-33.44278266 8.78296488 -31.81772272 8.0990491 -30.19067383 7.41992188 C-27.70382158 6.38181326 -25.22355217 5.32917739 -22.74414062 4.2734375 C-21.16703041 3.6059108 -19.58956751 2.93921661 -18.01171875 2.2734375 C-17.26991867 1.95990326 -16.52811859 1.64636902 -15.76383972 1.32333374 C-5.92900354 -2.77527825 -5.92900354 -2.77527825 0 0 Z " fill="#000000" transform="translate(362,200)"/>
<path d="M0 0 C0.7528125 -0.0309375 1.505625 -0.061875 2.28125 -0.09375 C5.6771122 0.81500186 6.63374009 2.5761928 8.5 5.5 C9.67461977 8.64142497 10.64245737 11.75476531 11.56640625 14.97265625 C13.13544817 20.11620427 14.93507094 24.07356277 19.76171875 26.7578125 C20.96248047 27.18707031 20.96248047 27.18707031 22.1875 27.625 C23.49460937 28.10646484 23.49460937 28.10646484 24.828125 28.59765625 C28.06365859 29.69035838 31.31175281 30.73356116 34.58984375 31.69140625 C36.80973839 32.63111625 37.97623213 33.64219293 39.5 35.5 C40.62679414 39.12183831 40.64042022 41.05241055 39.5 44.6875 C36.98389254 48.22577612 34.47584448 49.20103276 30.5 50.5 C20.35108073 53.38217124 20.35108073 53.38217124 13.42578125 60.66015625 C12.00735067 64.07177182 10.80004466 67.51197414 9.7265625 71.046875 C7.92211872 76.98407712 7.92211872 76.98407712 5.8125 79.5625 C2.32347236 80.97697067 -0.84765258 81.22172135 -4.5 80.5 C-10.1153782 77.05419974 -10.81089093 71.67692056 -12.55859375 65.59765625 C-13.98098421 60.91734242 -15.42261045 57.82509959 -19.625 55.14453125 C-24.69767192 52.44174824 -29.78082096 50.67220058 -35.37109375 49.37109375 C-38.10363066 48.25300984 -39.03342343 47.03777513 -40.5 44.5 C-41.08612528 39.88426343 -41.24397482 37.71240341 -38.8125 33.75 C-35.12613309 30.5826905 -30.17348472 29.75349114 -25.6015625 28.453125 C-20.44447513 26.86832737 -17.52570042 24.91787999 -14.375 20.5625 C-12.03025786 16.11524114 -10.88621343 11.2327837 -9.625 6.390625 C-7.76258673 1.60525758 -5.04639658 0.06912872 0 0 Z " fill="#000000" transform="translate(272.5,55.5)"/>
<path d="M0 0 C5.28 0 10.56 0 16 0 C16 3.3 16 6.6 16 10 C16.825 10.144375 17.65 10.28875 18.5 10.4375 C24.03341477 12.90777445 28.33851596 17.49998855 30.953125 23.0078125 C31.88644149 26.08775692 32 28.77237813 32 32 C26.72 32 21.44 32 16 32 C15.01 30.02 14.02 28.04 13 26 C10.15916359 24.57958179 8.14522722 24.68547728 5 25 C2.5 26.5 2.5 26.5 1 29 C0.42418767 32.45487399 0.54372187 34.21780892 2.3125 37.25 C5.1940139 39.12633464 6.89462694 39.43023833 10.25 39.9375 C18.40572812 41.19723963 23.73668942 44.88290478 28.8125 51.32421875 C32.50910236 56.54080564 32.7055941 61.77629821 32 68 C30.22020902 75.56974391 26.58081228 80.79702028 20 85 C18.02 85.495 18.02 85.495 16 86 C16 89.3 16 92.6 16 96 C10.72 96 5.44 96 0 96 C0 92.7 0 89.4 0 86 C-0.845625 85.835 -1.69125 85.67 -2.5625 85.5 C-8.61335548 82.8596267 -12.51778126 77.84495191 -14.9375 71.75 C-16 68 -16 68 -16 64 C-10.72 64 -5.44 64 0 64 C0.99 65.98 1.98 67.96 3 70 C5.84083641 71.42041821 7.85477278 71.31452272 11 71 C13.5 69.5 13.5 69.5 15 67 C15.50299316 62.89222251 15.32749345 61.49124017 13 58 C9.93089322 57.19299779 9.93089322 57.19299779 6.375 56.6875 C-1.58307811 55.13013021 -5.83736642 52.33358675 -11.3125 46.5625 C-15.78960164 39.76393825 -17.0076152 34.10778742 -16 26 C-14.13635261 18.9926858 -8.83120497 14.03781413 -3 10 C-2.01 10 -1.02 10 0 10 C0 6.7 0 3.4 0 0 Z " fill="#020000" transform="translate(424,40)"/>
<path d="M0 0 C5.82383375 3.56638679 10.32338571 8.95288688 12.3984375 15.46875 C13.5673085 23.47859234 12.00330437 29.84053253 7.3984375 36.46875 C2.68730319 41.88884142 -2.95054226 44.8679005 -10.05078125 45.78515625 C-16.07732667 46.07125565 -20.71842458 45.08551398 -25.6015625 41.46875 C-31.86591077 35.6698252 -35.65618034 29.71788911 -36.0390625 21.03125 C-35.80212912 14.36066397 -34.11051546 10.10408679 -29.5078125 5.26953125 C-20.50157066 -3.09126326 -11.4863017 -5.07281463 0 0 Z " fill="#0075B4" transform="translate(171.6015625,162.53125)"/>
<path d="M0 0 C-2.79814986 10.3826087 -8.03649809 18.84618182 -17 25 C-26.35443038 30 -26.35443038 30 -30 30 C-28.61027731 21.04760033 -23.26003321 12.4031153 -16 7 C-4.58185404 0 -4.58185404 0 0 0 Z " fill="#A2D2D4" transform="translate(471,177)"/>
<path d="M0 0 C11.31426767 3.04923526 20.12862574 9.07320756 26.3203125 19.1484375 C28.2819347 22.83848206 29 24.68587141 29 29 C20.86637085 28.57191426 14.12805056 23.54101921 8.6875 17.8125 C4.76232157 13.13094844 0 6.34127886 0 0 Z " fill="#A3D3D5" transform="translate(393,177)"/>
<path d="M0 0 C3.82964655 1.56022637 6.32190489 3.87555571 9 7 C9 8.32 9 9.64 9 11 C6.625 13.0625 6.625 13.0625 4 15 C3.01 16.485 3.01 16.485 2 18 C-1.82964655 16.43977363 -4.32190489 14.12444429 -7 11 C-7 7 -7 7 -4.625 4.375 C-3.75875 3.59125 -2.8925 2.8075 -2 2 C-1.34 1.34 -0.68 0.68 0 0 Z " fill="#E79534" transform="translate(271,87)"/>
</svg>
