<?xml version="1.0" standalone="no"?>
<!DOCTYPE svg PUBLIC "-//W3C//DTD SVG 20010904//EN"
 "http://www.w3.org/TR/2001/REC-SVG-20010904/DTD/svg10.dtd">
<svg version="1.0" xmlns="http://www.w3.org/2000/svg"
 width="512.000000pt" height="512.000000pt" viewBox="0 0 512.000000 512.000000"
 preserveAspectRatio="xMidYMid meet">

<g transform="translate(0.000000,512.000000) scale(0.100000,-0.100000)"
fill="#000000" stroke="none">
<path d="M262 4194 c-115 -57 -164 -196 -111 -314 15 -34 169 -194 657 -682
l637 -638 -637 -637 c-488 -489 -642 -649 -657 -683 -41 -90 -21 -199 49 -268
45 -46 84 -63 152 -69 118 -11 75 -49 892 766 795 792 786 782 786 885 0 113
40 67 -764 875 -594 595 -751 748 -791 767 -69 33 -144 32 -213 -2z"/>
<path d="M2531 1354 c-90 -45 -137 -130 -129 -234 6 -77 46 -144 112 -185 l49
-30 1132 0 1132 0 49 30 c30 19 60 49 79 79 27 44 30 58 30 126 0 68 -3 82
-30 126 -19 30 -49 60 -79 79 l-49 30 -1121 3 -1122 2 -53 -26z"/>
</g>
</svg>
